<?xml version="1.0" encoding="UTF-8" standalone="no"?>
<!-- Created with Inkscape (http://www.inkscape.org/) -->

<svg
   xmlns:dc="http://purl.org/dc/elements/1.1/"
   xmlns:cc="http://creativecommons.org/ns#"
   xmlns:rdf="http://www.w3.org/1999/02/22-rdf-syntax-ns#"
   xmlns:svg="http://www.w3.org/2000/svg"
   xmlns="http://www.w3.org/2000/svg"
   xmlns:sodipodi="http://sodipodi.sourceforge.net/DTD/sodipodi-0.dtd"
   xmlns:inkscape="http://www.inkscape.org/namespaces/inkscape"
   version="1.1"
   id="svg2"
   width="1451.4238"
   height="629.50146"
   viewBox="0 0 1451.4238 629.50146"
   sodipodi:docname="dualide.svg"
   inkscape:version="0.92.2 (5c3e80d, 2017-08-06)">
  <metadata
     id="metadata8">
    <rdf:RDF>
      <cc:Work
         rdf:about="">
        <dc:format>image/svg+xml</dc:format>
        <dc:type
           rdf:resource="http://purl.org/dc/dcmitype/StillImage" />
        <dc:title></dc:title>
      </cc:Work>
    </rdf:RDF>
  </metadata>
  <defs
     id="defs6">
    <clipPath
       clipPathUnits="userSpaceOnUse"
       id="clipPath16">
      <rect
         id="rect18"
         width="1494"
         height="674"
         x="74"
         y="540"
         style="fill:#ff0000" />
    </clipPath>
  </defs>
  <sodipodi:namedview
     pagecolor="#ffffff"
     bordercolor="#666666"
     borderopacity="1"
     objecttolerance="10"
     gridtolerance="10"
     guidetolerance="10"
     inkscape:pageopacity="0"
     inkscape:pageshadow="2"
     inkscape:window-width="1920"
     inkscape:window-height="1017"
     id="namedview4"
     showgrid="false"
     inkscape:zoom="0.42993766"
     inkscape:cx="1224.1141"
     inkscape:cy="-111.05759"
     inkscape:window-x="1912"
     inkscape:window-y="-8"
     inkscape:window-maximized="1"
     inkscape:current-layer="svg2" />
  <path
     style="fill:#000000;stroke-width:1.33333337"
     d="m 1360.7006,1140.9943 v -53.3333 h 4.6666 4.6667 v 53.3333 53.3334 h -4.6667 -4.6666 z m 26.8822,53.0018 c 0.013,-0.6628 -0.05,-3.5915 -0.05,-6.4026 v -5.1111 l 24.3334,-0.029 c 20.6886,-0.025 24.9664,-0.5488 29.5009,-2.62 7.2667,-3.319 13.652,-10.0631 17.8366,-18.8387 3.053,-6.4027 4.4312,-14.6505 4.3762,-20.6688 -0.057,-6.3103 -1.1916,-14.0214 -5.2593,-22.2841 -4.4219,-8.982 -10.9879,-15.6054 -18.1817,-18.3405 -6.7991,-1.5677 -13.4292,-1.3732 -25.4282,-1.3732 l -22.2223,-0.125 -7.1364,-10.7699 c 53.4948,0.3148 49.1891,-0.3465 56.381,0.9291 23.1649,7.0967 37.7425,36.0229 32.3683,63.5658 -3.3746,17.2946 -13.8164,31.7539 -27.9667,38.7269 -5.5576,2.7387 -8.191,3.2011 -31.2684,3.6098 -13.9334,0.2469 -26.1459,0.085 -27.2865,0.1228 z m 103.7844,-52.9752 v -53.3599 h 28.6667 28.6667 v 4.6667 4.6666 h -24 -24 v 19.3334 19.3333 h 14 14 v 4.6667 4.6666 h -14 -14 v 20 l -0.02,21.1266 h 24.0845 24.0844 l 0.01,4.3599 0.014,3.9707 -29.1447,-0.011 -28.3358,0.01 z M 110.0339,1092.3277 v -4.6667 h 617.33333 617.33337 v 4.6667 4.6666 H 727.36723 110.0339 Z m 0,-77.9029 v -31.9029 l 83.66667,-0.5053 c 80.56952,-0.4866 84.20317,-0.6165 98.1598,-3.5094 73.29289,-15.1919 115.7864,-57.8479 129.68373,-130.1795 3.57081,-18.5851 3.29696,-59.7981 -0.51108,-76.91036 -17.11392,-76.90532 -64.94611,-124.77157 -136.99061,-137.0882 -14.12602,-2.41496 -21.69836,-2.66861 -79.80767,-2.67336 l -64.20084,-0.005 -42.584169,-66.41014 c 0,0 15.860229,-0.53136 94.784879,-0.0749 90.74742,0.5248 96.56702,3.5776 110.35796,6.24656 36.2206,7.00979 65.65761,17.95722 89.44133,33.2626 11.65443,7.49991 14.77159,10.05092 27.81967,22.76692 38.01161,37.04427 64.39704,92.78851 71.57916,151.22455 2.29188,18.6476 0.98337,56.1356 -2.68028,76.7881 -6.5285,36.8019 -20.81186,74.4681 -37.63094,99.2353 -12.20986,17.9798 -41.16166,44.0758 -63.82726,57.53113 -32.2488,19.1445 -71.61764,29.7812 -121.26035,32.7621 -12.1,0.7266 -52.15,1.3264 -89,1.333 l -67,0.012 z m 554.18069,30.4875 c -40.33128,-3.5881 -74.92826,-20.0774 -102.06492,-48.6452 -17.05698,-17.9566 -27.40068,-36.8444 -34.07757,-62.2264 -6.72217,-25.5542 -6.70487,-25.0316 -6.70487,-202.37968 v -166.6875 l 35,0.0195 35,-0.043 V 724.3581 c 0,103.9556 0.49484,163.912 1.42252,172.3555 1.60252,14.5858 7.34295,33.2999 13.53343,44.1197 5.59299,9.7755 19.1422,23.8388 28.25853,29.3306 20.94044,12.6149 30.99896,13.722 120.11886,13.2206 l 69.33333,-0.3902 0.3382,-177.6666 0.3382,-177.66668 H 792.70543 760.70057 V 596.31475 564.9685 l 63.79166,0.0963 63.41667,-0.0287 0.125,240.62498 v 240.00002 l -106,0.1514 c -58.3,0.083 -111.31869,-0.3218 -117.81931,-0.9001 z m 251.15264,-237.918 0.17678,-241.98493 42.42173,-0.0563 40.03523,0.12049 165.36623,240.21663 c 89.9108,130.60747 164.9135,240.98061 164.9135,240.98061 0,0 -8.7742,0.057 -42.0755,0.057 h -41.3575 l -11.8358,-17 c -6.5097,-9.35 -18.9719,-27.5 -27.6939,-40.33331 -8.722,-12.8333 -35.0829,-51.2333 -58.5798,-85.3333 -41.5411,-60.2866 -48.704,-71.1027 -91.169,-137.66665 -11.1111,-17.41666 -29.1052,-45.61666 -39.9869,-62.66666 -10.8817,-17.05 -21.99257,-34.47868 -24.69085,-38.7304 -2.69828,-4.25172 -7.46508,-11.35881 -7.46508,-11.35881 0,0 -0.0591,38.22791 -0.0591,96.50123 v 91.25459 h 43.70723 43.7074 l 21.2926,30.9359 c 11.711,17.0147 22.5497,33.03125 22.5497,33.03125 0,0 -29.8181,0.0329 -65.8125,0.0329 h -65.44443 v 70.6667 70.66666 h -34 -34 z m 490.79657,237.853 c -15.0652,-0.021 -30.0502,-1.3362 -44.9678,-9.197 l -10.8377,-5.5542 -41.6507,-60.6161 c -26.0488,-37.9102 -42.0801,-62.4647 -42.797,-65.5509 -0.6305,-2.7141 -1.1607,-80.0848 -1.1782,-171.93475 l -0.032,-167 h 35.3335 35.3333 l 0.017,165.66667 c 0.016,157.00468 0.1487,166.29408 2.526,177.66668 3.3745,16.1428 7.0351,25.3463 14.6938,36.943 7.5865,11.4877 13.6832,17.491 25.3332,24.9456 17.6313,11.2819 31.7817,13.4182 88.9829,13.4338 l 40.2203,0.011 19.4464,30.4893 c 10.6956,16.7691 19.4465,31.3333 19.4465,31.3333 -125.25,0.2136 -132.8723,-0.2353 -139.8701,-0.6363 z"
     id="path12"
     inkscape:connector-curvature="0"
     sodipodi:nodetypes="ccccccccccsccccsccsccccccccccccccccccccccccccccccccccccccccccccscssscccsssssssccsccccsscccssscccccccccccccccccccscscsscssscscccccscccccccccccccccsccssccsccc"
     clip-path="url(#clipPath16)"
     transform="translate(-97.449731,-564.95002)" />
</svg>
