<?xml version="1.0" encoding="UTF-8" standalone="no"?>
<svg
        xmlns:dc="http://purl.org/dc/elements/1.1/"
        xmlns:cc="http://creativecommons.org/ns#"
        xmlns:rdf="http://www.w3.org/1999/02/22-rdf-syntax-ns#"
        xmlns:sodipodi="http://sodipodi.sourceforge.net/DTD/sodipodi-0.dtd"
        xmlns:inkscape="http://www.inkscape.org/namespaces/inkscape"
        xmlns="http://www.w3.org/2000/svg"
        viewBox="0 0 419 570"
        height="570"
        width="419"
        id="svg3713"
        version="1.1"
        sodipodi:docname="casey.svg"
        inkscape:export-filename="C:\Users\frank\IdeaProjects\Casey\CaseyIDE\src\main\resources\sharknoon\casey\ide\ui\casey.png"
        inkscape:export-xdpi="114.55847"
        inkscape:export-ydpi="114.55847"
        inkscape:version="0.92.3 (2405546, 2018-03-11)">
    <sodipodi:namedview
            pagecolor="#ffffff"
            bordercolor="#666666"
            borderopacity="1"
            objecttolerance="10"
            gridtolerance="10"
            guidetolerance="10"
            inkscape:pageopacity="0"
            inkscape:pageshadow="2"
            inkscape:window-width="1920"
            inkscape:window-height="1017"
            id="namedview34"
            showgrid="false"
            inkscape:zoom="0.41403509"
            inkscape:cx="-318.23305"
            inkscape:cy="285"
            inkscape:window-x="3832"
            inkscape:window-y="-8"
            inkscape:window-maximized="1"
            inkscape:current-layer="svg3713"/>
    <metadata
            id="metadata3719">
        <rdf:RDF>
            <cc:Work
                    rdf:about="">
                <dc:format>image/svg+xml</dc:format>
                <dc:type
                        rdf:resource="http://purl.org/dc/dcmitype/StillImage"/>
                <dc:title></dc:title>
            </cc:Work>
        </rdf:RDF>
    </metadata>
    <defs
            id="defs3717"/>
    <path
            id="path3723"
            d="m 188.37559,22.181604 c 0,0 4.85222,18.889334 46.37972,45.87559 13.57122,8.819131 47.19213,31.157213 54.27771,36.801296 25.82604,20.57197 38.18011,45.90741 44.05595,58.21229 13.11113,27.45665 12.40631,70.17214 12.40631,70.17214 0,0 -4.45325,-15.1503 -30.75177,-39.48998 -12.04583,-11.14859 -41.84257,-27.05483 -41.84257,-27.05483 0,0 -23.75169,-13.02084 -37.3462,-21.82513 -22.48767,-14.56382 -29.87078,-27.24326 -29.87078,-27.24326 0,0 -11.96235,-17.702199 -16.38414,-43.018869 -3.00737,-17.218471 -0.92423,-52.429247 -0.92423,-52.429247 z"
            style="fill:#00bb2d;stroke:#00bb2d;stroke-width:1px;stroke-linecap:butt;stroke-linejoin:miter;stroke-opacity:1;fill-opacity:1"/>
    <path
            id="path3723-7"
            d="m 107.87418,104.52941 c 0,0 7.7958,22.75351 72.37616,50.61721 21.1049,9.10587 75.59965,26.7463 86.65848,32.49786 39.90228,20.75266 53.27547,39.93772 66.01239,61.60503 16.92053,28.78422 19.29333,73.20373 19.29333,73.20373 0,0 -7.42535,-20.39291 -45.57277,-46.27397 -18.1946,-12.3441 -65.82031,-25.9345 -65.82031,-25.9345 -15.37248,-3.97206 -37.61001,-9.63442 -60.07792,-18.28475 -18.67902,-7.19158 -33.42041,-15.83162 -45.95272,-28.87907 -11.82405,-12.31009 -18.60292,-18.27776 -25.47934,-44.41759 -4.67682,-17.77833 -1.4373,-54.13395 -1.4373,-54.13395 z"
            style="fill:#ffd600;fill-opacity:1;stroke:#ffd600;stroke-width:1.26715672px;stroke-linecap:butt;stroke-linejoin:miter;stroke-opacity:1"/>
    <path
            id="path3723-73"
            d="m 73.606561,209.05038 c 0,0 22.865253,21.87553 83.738129,46.55614 23.98317,9.72386 81.69368,20.80246 100.66817,25.42965 37.74864,9.20553 63.8939,33.89539 74.99248,46.42453 20.83347,23.51882 27.66697,58.97619 27.66697,58.97619 0,0 -6.13632,-20.73307 -54.68507,-36.18936 -22.79267,-7.25642 -51.76252,-9.56782 -77.94853,-11.73824 -21.60304,-1.79056 -36.11626,-0.67039 -72.23342,-11.84293 -28.39581,-8.78401 -41.29709,-25.18642 -48.57545,-33.89661 -10.012188,-11.98183 -18.782366,-25.7207 -24.434662,-40.65521 -5.784619,-15.28413 -9.188617,-43.06416 -9.188617,-43.06416 z"
            style="fill:#f80000;fill-opacity:1;stroke:#f80000;stroke-width:1.23917139px;stroke-linecap:butt;stroke-linejoin:miter;stroke-opacity:1"/>
    <text
     id="text4592"
     y="506"
     x="65"
     style="font-style:normal;font-weight:normal;font-size:40px;line-height:1.25;font-family:sans-serif;letter-spacing:0px;word-spacing:0px;fill:#01005d;fill-opacity:1;stroke:none;"
     xml:space="preserve"><tspan
       style="font-size:122.66666667px;-inkscape-font-specification:Corbel;font-family:Corbel;font-weight:normal;font-style:normal;font-stretch:normal;font-variant:normal;fill:#01005d;fill-opacity:1;"
       y="506"
       x="65"
       id="tspan4590">Casey</tspan></text>
</svg>
