<?xml version="1.0" encoding="UTF-8" standalone="no"?>
<svg
        xmlns:dc="http://purl.org/dc/elements/1.1/"
        xmlns:cc="http://creativecommons.org/ns#"
        xmlns:rdf="http://www.w3.org/1999/02/22-rdf-syntax-ns#"
        xmlns="http://www.w3.org/2000/svg"
        xmlns:sodipodi="http://sodipodi.sourceforge.net/DTD/sodipodi-0.dtd"
        xmlns:inkscape="http://www.inkscape.org/namespaces/inkscape"
        width="325.03601"
        height="570"
        version="1.1"
        id="svg12"
        sodipodi:docname="casey.svg"
        inkscape:version="0.92.3 (2405546, 2018-03-11)">
    <metadata
            id="metadata18">
        <rdf:RDF>
            <cc:Work
                    rdf:about="">
                <dc:format>image/svg+xml</dc:format>
                <dc:type
                        rdf:resource="http://purl.org/dc/dcmitype/StillImage"/>
                <dc:title></dc:title>
            </cc:Work>
        </rdf:RDF>
    </metadata>
    <defs
            id="defs16"/>
    <sodipodi:namedview
            pagecolor="#ffffff"
            bordercolor="#666666"
            borderopacity="1"
            objecttolerance="10"
            gridtolerance="10"
            guidetolerance="10"
            inkscape:pageopacity="0"
            inkscape:pageshadow="2"
            inkscape:window-width="1920"
            inkscape:window-height="1137"
            id="namedview14"
            showgrid="false"
            inkscape:zoom="1.1710681"
            inkscape:cx="241.00899"
            inkscape:cy="220.99176"
            inkscape:window-x="1358"
            inkscape:window-y="-8"
            inkscape:window-maximized="1"
            inkscape:current-layer="svg12"/>
    <path
            d="m 129.12547,1.3812331 c 0,0 5.33392,20.8912109 51.56128,50.8945469 15.00167,9.778865 52.33915,34.559397 60.22892,40.893435 a 176.68631,176.68631 0 0 1 48.89432,64.673855 c 14.6683,30.44783 13.89044,77.89755 13.89044,77.89755 0,0 -5.00056,-16.77964 -34.22603,-43.78265 -13.33481,-12.44582 -46.44961,-30.11445 -46.44961,-30.11445 0,0 -26.44738,-14.44605 -41.44905,-24.22492 -25.00278,-16.22403 -33.33704,-30.33671 -33.33704,-30.33671 0,0 -13.22369,-19.668849 -18.11312,-47.783085 -3.33371,-19.113236 -1.11124,-58.2286953 -1.11124,-58.2286953 z"
            id="path2"
            inkscape:connector-curvature="0"
            style="fill:#00bb2d;stroke:#00bb2d;stroke-width:1.11123466"/>
    <path
            d="m 39.671077,92.835844 c 0,0 8.66763,25.336146 80.453383,56.228476 23.33593,10.22336 83.89822,29.78109 96.23293,36.11512 44.44938,23.11368 59.2288,44.44939 73.34148,68.45206 18.89099,32.00355 21.44683,81.4535 21.44683,81.4535 0,0 -8.22314,-22.66919 -50.6723,-51.45017 -20.22447,-13.77931 -73.11924,-28.8921 -73.11924,-28.8921 -17.11301,-4.44494 -41.78242,-10.66785 -66.67408,-20.22447 A 134.23714,134.23714 0 0 1 69.563289,202.29246 C 56.45072,188.73539 48.894324,182.06799 41.226805,153.06476 36.004002,133.28479 39.671077,92.835844 39.671077,92.835844 Z"
            id="path4"
            inkscape:connector-curvature="0"
            style="fill:#ffd600;stroke:#ffd600;stroke-width:1.44460499"/>
    <path
            d="m 1.5557285,208.95986 c 0,0 25.4472735,24.44717 93.0103395,51.78354 26.669632,10.77897 90.787872,23.11368 111.901332,28.22536 a 169.35216,169.35216 0 0 1 83.34259,51.67241 c 23.11369,26.11401 30.7812,65.56284 30.7812,65.56284 0,0 -6.88965,-23.11368 -60.78453,-40.33781 -25.33615,-8.00089 -57.56195,-10.55673 -86.6763,-13.00145 -24.00267,-2.00022 -40.00445,-0.77786 -80.231144,-13.11257 C 61.340152,329.97332 47.005225,311.74907 38.893213,301.9702 27.780866,288.63539 18.002001,273.41147 11.779087,256.85408 5.3339263,239.85219 1.5557285,209.07099 1.5557285,209.07099 Z"
            id="path6"
            inkscape:connector-curvature="0"
            style="fill:#f80000;stroke:#f80000;stroke-width:1.33348167"/>
    <g
            style="font-weight:400;font-size:122.69999695px;line-height:1.25;font-family:Corbel;letter-spacing:0;word-spacing:0;fill:#01005d"
            aria-label="Casey"
            font-size="122.7"
            font-weight="400"
            letter-spacing="0"
            word-spacing="0"
            id="g10"
            transform="matrix(1.1112346,0,0,1.1112346,-80.231141,-23.288176)">
    <path
            style="-inkscape-font-specification:Corbel"
            d="m 114.1,433 q -6.6,0 -12.4,2.2 -5.8,2.1 -10,6.4 -4.3,4.1 -6.8,10.4 -2.4,6.3 -2.4,14.6 0,8.3 2.3,14.4 2.2,6 6.4,10 4.2,4 10.1,5.9 6,2 13.2,2 2,0 4.2,-0.3 l 4.4,-0.6 4.4,-0.9 q 2.1,-0.5 3.8,-1.1 v 8.6 q -3.5,1.4 -8.2,2.1 -4.7,0.8 -9.6,0.8 -10,0 -17.7,-2.8 -7.7,-2.8 -13,-8 -5.2,-5.2 -8,-12.7 -2.6,-7.5 -2.6,-17 0,-9.4 2.8,-17.2 2.9,-7.9 8.2,-13.5 5.4,-5.6 13,-8.8 7.7,-3.1 17.2,-3.1 l 5,0.2 q 2.4,0.2 4.6,0.6 l 4.2,0.9 q 2,0.5 3.3,1.1 v 8.7 q -3.6,-1.2 -7.8,-2 -4.3,-0.9 -8.6,-0.9 z m 65.5,66.7 h -0.2 q -1.1,1.4 -2.9,2.9 -1.7,1.4 -4,2.5 -2.3,1 -5,1.7 -2.7,0.7 -5.7,0.7 -4.1,0 -7.6,-1.3 -3.4,-1.2 -6,-3.5 -2.4,-2.4 -3.8,-5.8 -1.4,-3.4 -1.4,-7.7 0,-4.3 1.5,-7.6 1.6,-3.4 4.4,-5.7 2.7,-2.4 6.5,-3.6 4,-1.3 8.6,-1.3 4.4,0 8.2,0.8 3.8,0.7 6.7,1.8 h 0.3 v -4 q 0,-2.3 -0.3,-4 -0.3,-1.9 -1,-3.3 -1.6,-2.8 -5,-4.7 -3.4,-2 -9.3,-2 -4.3,0 -8.1,1 -3.8,0.7 -7.5,2.1 V 451 q 1.4,-0.8 3.3,-1.4 2,-0.6 4.1,-1 2.2,-0.5 4.6,-0.8 l 4.8,-0.2 q 8.6,0 14,3 5.6,3.1 8,8.1 0.9,2 1.2,4.3 0.4,2.3 0.4,5 v 38 h -7.7 z M 179.2,481 q -2.6,-0.7 -6.1,-1.4 -3.6,-0.6 -7.8,-0.7 -6,0 -9.3,2.5 -3.4,2.6 -3.4,7.8 0,2.6 0.9,4.6 0.8,2 2.2,3.3 1.5,1.2 3.5,1.9 2,0.6 4.3,0.6 3,0 5.6,-0.8 2.6,-1 4.6,-2.1 2,-1.2 3.4,-2.4 l 2,-1.9 z m 33.3,-16.7 q 0,2.3 1,3.8 1,1.5 2.7,2.4 1.7,1 4,1.5 l 4.6,1.1 q 3.3,0.7 6.2,1.6 3,0.9 5.4,2.6 2.5,1.7 4,4.7 1.6,3 1.6,7.7 0,4.3 -1.7,7.7 -1.7,3.3 -4.7,5.5 -3,2.3 -7.3,3.4 -4.3,1.2 -9.4,1.2 -3,0 -5.7,-0.4 -2.5,-0.3 -4.5,-0.8 l -3.2,-1 -2.3,-1 v -7.8 q 3.6,1.4 7.1,2.3 3.5,0.8 7.8,0.8 3.3,0 6,-0.6 2.7,-0.6 4.7,-1.7 2,-1.2 3,-3 1,-1.8 1,-4.1 0,-2.4 -1,-4 -0.9,-1.5 -2.5,-2.5 -1.6,-1 -3.8,-1.7 -2,-0.7 -4.4,-1.2 l -6.2,-1.6 q -3.2,-0.9 -5.7,-2.5 -2.6,-1.6 -4.2,-4.4 -1.6,-2.8 -1.6,-7.1 0,-4.5 1.6,-7.8 1.7,-3.3 4.4,-5.5 2.8,-2.1 6.4,-3.2 3.7,-1.1 7.7,-1.1 4.8,0 8.8,0.9 4,0.9 7.4,2.3 v 7.9 q -3.6,-1.4 -7.4,-2.2 -3.6,-1 -7.5,-1 -3.3,0 -5.6,0.7 -2.4,0.6 -3.9,1.8 -1.5,1.2 -2.2,2.8 -0.6,1.5 -0.6,3.5 z m 65.8,-8.7 q -3.1,0 -5.9,1.2 -2.7,1.3 -4.7,3.4 -2,2.2 -3.3,5.1 -1.3,3 -1.6,6.2 h 28.8 q 0,-3.4 -1,-6.2 -0.8,-3 -2.4,-5.1 -1.7,-2.2 -4.2,-3.4 -2.4,-1.2 -5.7,-1.2 z m 5.1,43.8 q 4.7,0 8.4,-0.7 3.9,-0.8 7.6,-2.2 v 7.8 q -3,1.5 -7.5,2.3 -4.5,0.9 -9.7,0.9 -6,0 -11.5,-1.6 -5.3,-1.5 -9.3,-5 -4,-3.5 -6.4,-9 -2.2,-5.7 -2.2,-13.6 0,-7.8 2.1,-13.4 2.2,-5.8 5.8,-9.6 3.6,-3.9 8.2,-5.8 4.7,-1.9 9.8,-1.9 4.8,0 9,1.6 4.1,1.6 7.2,5 3,3.4 4.8,8.8 1.8,5.4 1.8,13 v 3.5 h -39.1 q 0,5.4 1.6,9.3 1.7,3.7 4.5,6.1 2.8,2.4 6.7,3.4 3.8,1.1 8.2,1.1 z m 26.1,-50.3 h 9.5 l 17.7,44.6 h 0.3 l 18,-44.6 h 9.7 l -35.5,84.8 H 320 l 12.1,-29 z"
            id="path8"
            inkscape:connector-curvature="0"/>
    </g>
</svg>
