<?xml version="1.0" encoding="UTF-8" standalone="no"?>
<svg
        xmlns:dc="http://purl.org/dc/elements/1.1/"
        xmlns:cc="http://creativecommons.org/ns#"
        xmlns:rdf="http://www.w3.org/1999/02/22-rdf-syntax-ns#"
        xmlns:sodipodi="http://sodipodi.sourceforge.net/DTD/sodipodi-0.dtd"
        xmlns:inkscape="http://www.inkscape.org/namespaces/inkscape"
        xmlns="http://www.w3.org/2000/svg"
        width="98.059998"
        height="100"
        viewBox="0 0 47.068799 48"
        version="1.1"
        id="svg6"
        sodipodi:docname="cog.svg"
        inkscape:version="0.92.3 (2405546, 2018-03-11)">
    <metadata
            id="metadata12">
        <rdf:RDF>
            <cc:Work
                    rdf:about="">
                <dc:format>image/svg+xml</dc:format>
                <dc:type
                        rdf:resource="http://purl.org/dc/dcmitype/StillImage"/>
                <dc:title></dc:title>
            </cc:Work>
        </rdf:RDF>
    </metadata>
    <defs
            id="defs10"/>
    <sodipodi:namedview
            pagecolor="#ffffff"
            bordercolor="#666666"
            borderopacity="1"
            objecttolerance="10"
            gridtolerance="10"
            guidetolerance="10"
            inkscape:pageopacity="0"
            inkscape:pageshadow="2"
            inkscape:window-width="1920"
            inkscape:window-height="1137"
            id="namedview8"
            showgrid="false"
            inkscape:zoom="5.6568542"
            inkscape:cx="57.385886"
            inkscape:cy="73.934353"
            inkscape:window-x="1358"
            inkscape:window-y="-8"
            inkscape:window-maximized="1"
            inkscape:current-layer="svg6"/>
    <path
            d="M 41.390749,26.526316 41.620414,24 41.390749,21.473684 46.558213,17.799043 c 0.45933,-0.344497 0.688995,-1.033493 0.344497,-1.607655 L 41.85008,7.6937799 C 41.505582,7.1196172 40.931419,6.8899521 40.357257,7.2344498 L 34.615629,9.8755981 A 20.669856,20.669856 0 0 0 30.251993,7.3492823 L 29.67783,1.0334928 C 29.562998,0.45933014 29.103668,0 28.529505,0 H 18.653907 C 18.079745,0 17.505582,0.45933014 17.505582,1.0334928 L 16.931419,7.3492823 C 15.323764,8.0382775 13.83094,8.8421053 12.567783,9.8755981 L 6.8261562,7.2344498 c -0.5741626,-0.2296652 -1.2631579,0 -1.4928229,0.4593301 L 0.39553428,16.191388 A 1.1483254,1.1483254 0 0 0 0.7400319,17.799043 L 5.907496,21.473684 5.6778309,24 5.907496,26.526316 0.51036682,30.200957 c -0.45933014,0.344498 -0.68899521,1.033492 -0.3444976,1.607655 L 5.1036682,40.30622 c 0.3444976,0.574163 0.9186603,0.803828 1.492823,0.45933 l 5.7416258,-2.641148 a 20.669856,20.669856 0 0 0 4.363637,2.526316 l 0.574162,6.315789 C 17.390749,47.540669 17.850079,48 18.424242,48 h 9.875598 c 0.574163,0 1.148325,-0.459331 1.148325,-1.033493 l 0.574163,-6.315789 c 1.607656,-0.688996 3.100479,-1.492823 4.363637,-2.526316 l 5.741626,2.641148 c 0.574162,0.229666 1.263158,0 1.492823,-0.45933 l 4.937799,-8.497608 A 1.1483254,1.1483254 0 0 0 46.213716,30.200957 Z M 23.476873,35.483254 A 11.483254,11.483254 0 0 1 11.99362,24 11.483254,11.483254 0 0 1 23.476873,12.516747 11.483254,11.483254 0 0 1 34.960127,24 11.483254,11.483254 0 0 1 23.476873,35.483254 Z"
            id="path2"
            inkscape:connector-curvature="0"
            style="fill:#607d8b;stroke-width:1.14832544"/>
    <path
            d="M 23.476873,10.220096 A 13.779904,13.779904 0 0 0 9.6969696,24 13.779904,13.779904 0 0 0 23.476873,37.779904 13.779904,13.779904 0 0 0 37.256778,24 13.779904,13.779904 0 0 0 23.476873,10.220096 Z m 0,19.521531 A 5.7416268,5.7416268 0 0 1 17.735247,24 5.7416268,5.7416268 0 0 1 23.476873,18.258373 5.7416268,5.7416268 0 0 1 29.218501,24 5.7416268,5.7416268 0 0 1 23.476873,29.741627 Z"
            id="path4"
            inkscape:connector-curvature="0"
            style="fill:#455a64;stroke-width:1.14832544"/>
</svg>
