<?xml version="1.0" encoding="UTF-8" standalone="no"?>
<svg
        xmlns:dc="http://purl.org/dc/elements/1.1/"
        xmlns:cc="http://creativecommons.org/ns#"
        xmlns:rdf="http://www.w3.org/1999/02/22-rdf-syntax-ns#"
        xmlns:sodipodi="http://sodipodi.sourceforge.net/DTD/sodipodi-0.dtd"
        xmlns:inkscape="http://www.inkscape.org/namespaces/inkscape"
        xmlns="http://www.w3.org/2000/svg"
        width="100"
        height="100"
        viewBox="0 0 48 48"
        version="1.1"
        id="svg6"
        sodipodi:docname="function.svg"
        inkscape:version="0.92.3 (2405546, 2018-03-11)">
    <metadata
            id="metadata12">
        <rdf:RDF>
            <cc:Work
                    rdf:about="">
                <dc:format>image/svg+xml</dc:format>
                <dc:type
                        rdf:resource="http://purl.org/dc/dcmitype/StillImage"/>
                <dc:title></dc:title>
            </cc:Work>
        </rdf:RDF>
    </metadata>
    <defs
            id="defs10"/>
    <sodipodi:namedview
            pagecolor="#ffffff"
            bordercolor="#666666"
            borderopacity="1"
            objecttolerance="10"
            gridtolerance="10"
            guidetolerance="10"
            inkscape:pageopacity="0"
            inkscape:pageshadow="2"
            inkscape:window-width="1920"
            inkscape:window-height="1137"
            id="namedview8"
            showgrid="false"
            inkscape:zoom="5.6568542"
            inkscape:cx="27.245459"
            inkscape:cy="73.934353"
            inkscape:window-x="1358"
            inkscape:window-y="-8"
            inkscape:window-maximized="1"
            inkscape:current-layer="svg6"/>
    <g
            id="g828"/>
    <path
            id="path4"
            style="fill:#e65100;fill-opacity:1;stroke-width:0.59852237"
            d="m 15.658102,26.23667 a 7.1822681,7.1822681 0 0 0 -7.1819925,7.181993 7.1822681,7.1822681 0 0 0 7.1819925,7.181993 7.1822681,7.1822681 0 0 0 7.181992,-7.181993 7.1822681,7.1822681 0 0 0 -7.181992,-7.181993 z m 0.04495,2.178346 a 5.0036468,5.0036468 0 0 1 5.003647,5.003647 5.0036468,5.0036468 0 0 1 -5.003647,5.003647 5.0036468,5.0036468 0 0 1 -5.003647,-5.003647 5.0036468,5.0036468 0 0 1 5.003647,-5.003647 z m 9.321918,6.320396 0.119705,-1.316749 -0.119705,-1.316749 2.693351,-1.915272 c 0.239408,-0.179556 0.359113,-0.53867 0.179557,-0.837931 L 25.26438,24.919646 C 25.084823,24.620385 24.785561,24.50068 24.4863,24.680237 l -2.992612,1.376601 a 10.773402,10.773402 0 0 0 -2.274379,-1.316749 l -0.299261,-3.291873 c -0.05986,-0.299261 -0.299261,-0.53867 -0.598523,-0.53867 h -5.147292 c -0.299261,0 -0.598522,0.239409 -0.598522,0.53867 l -0.299261,3.291873 c -0.837931,0.359114 -1.61601,0.77808 -2.274385,1.316749 L 7.0094515,24.680237 c -0.299261,-0.119705 -0.658374,0 -0.778078,0.239409 l -2.5736468,4.429065 a 0.59852236,0.59852236 0 0 0 0.1795568,0.837931 l 2.693351,1.915272 -0.119705,1.316749 0.119705,1.316749 -2.8130559,1.915272 c -0.2394089,0.179557 -0.3591128,0.53867 -0.1795569,0.837931 l 2.5736468,4.429065 c 0.179557,0.299262 0.478818,0.418966 0.778078,0.239409 l 2.992612,-1.376601 a 10.773402,10.773402 0 0 0 2.2743865,1.316749 l 0.299261,3.291873 c 0.05986,0.299261 0.29926,0.53867 0.598522,0.53867 h 5.147292 c 0.299261,0 0.598522,-0.239409 0.598522,-0.53867 l 0.299262,-3.291873 c 0.837931,-0.359114 1.61601,-0.778078 2.274384,-1.316749 l 2.992612,1.376601 c 0.299261,0.119705 0.658374,0 0.778079,-0.239409 l 2.573646,-4.429065 a 0.59852236,0.59852236 0 0 0 -0.179556,-0.837931 z m -9.336949,4.668475 a 5.9852236,5.9852236 0 0 1 -5.9852235,-5.985224 5.9852236,5.9852236 0 0 1 5.9852235,-5.985223 5.9852236,5.9852236 0 0 1 5.985224,5.985223 5.9852236,5.9852236 0 0 1 -5.985224,5.985224 z"
            inkscape:connector-curvature="0"/>
    <path
            id="path4-2"
            style="fill:#ffa000;fill-opacity:1;stroke-width:0.59852237"
            d="m 32.438779,7.6405569 a 7.1822678,7.1822678 0 0 0 -7.181992,7.1819931 7.1822678,7.1822678 0 0 0 7.181992,7.181993 7.1822678,7.1822678 0 0 0 7.181992,-7.181993 7.1822678,7.1822678 0 0 0 -7.181992,-7.1819931 z m 0.04495,2.178346 a 5.0036467,5.0036467 0 0 1 5.003645,5.0036471 5.0036467,5.0036467 0 0 1 -5.003647,5.003647 5.0036467,5.0036467 0 0 1 -5.003646,-5.003647 5.0036467,5.0036467 0 0 1 5.003646,-5.0036471 z m 9.321918,6.3203961 0.119705,-1.316749 -0.119705,-1.316749 2.693351,-1.915273 c 0.23941,-0.179556 0.359115,-0.538669 0.179559,-0.837931 l -2.6335,-4.4290641 C 41.8655,6.0242719 41.566238,5.9045669 41.266977,6.0841239 l -2.992612,1.376601 a 10.773402,10.773402 0 0 0 -2.274379,-1.316749 l -0.299261,-3.291873 c -0.05986,-0.299261 -0.299261,-0.53867 -0.598523,-0.53867 H 29.95491 c -0.299261,0 -0.598521,0.239409 -0.598521,0.53867 l -0.299262,3.291873 c -0.83793,0.359114 -1.616009,0.77808 -2.274385,1.316749 L 23.79013,6.0841239 c -0.299261,-0.119705 -0.658375,0 -0.778079,0.239409 l -2.573646,4.4290641 a 0.59852237,0.59852237 0 0 0 0.179557,0.837931 l 2.69335,1.915273 -0.119705,1.316749 0.119705,1.316749 -2.813055,1.915272 c -0.239409,0.179557 -0.359113,0.53867 -0.179557,0.837931 l 2.573647,4.429065 c 0.179556,0.299262 0.478817,0.418966 0.778078,0.239409 l 2.992612,-1.376601 a 10.773402,10.773402 0 0 0 2.274386,1.316749 l 0.29926,3.291873 c 0.05986,0.29926 0.299261,0.53867 0.598522,0.53867 h 5.147292 c 0.299261,0 0.598522,-0.23941 0.598522,-0.53867 l 0.299262,-3.291873 c 0.837931,-0.359114 1.61601,-0.778079 2.274384,-1.316749 l 2.992612,1.376601 c 0.299261,0.119705 0.658374,0 0.778079,-0.239409 l 2.573646,-4.429065 a 0.59852237,0.59852237 0 0 0 -0.179556,-0.837931 z m -9.336949,4.668474 a 5.9852237,5.9852237 0 0 1 -5.985222,-5.985223 5.9852237,5.9852237 0 0 1 5.985222,-5.9852231 5.9852237,5.9852237 0 0 1 5.985224,5.9852231 5.9852237,5.9852237 0 0 1 -5.985224,5.985223 z"
            inkscape:connector-curvature="0"/>
</svg>
