<svg xmlns="http://www.w3.org/2000/svg" width="95" height="100" viewBox="0 0 45.6 48">
    <defs>
        <filter id="a" color-interpolation-filters="sRGB">
            <feFlood flood-color="#000" flood-opacity="0.490196" result="flood"/>
            <feComposite in="flood" in2="SourceGraphic" operator="in" result="composite1"/>
            <feGaussianBlur in="composite1" result="blur" stdDeviation="0.4"/>
            <feOffset dx=".5" dy=".5" result="offset"/>
            <feComposite in="SourceGraphic" in2="offset" result="composite2"/>
        </filter>
    </defs>
    <path fill="#e65100"
          d="M13.5 26.3a8 7.9 0 0 0-8 8 8 7.9 0 0 0 8 7.8 8 7.9 0 0 0 7.9-7.9 8 7.9 0 0 0-8-7.9zm0 2.4a5.5 5.5 0 0 1 5.5 5.5 5.5 5.5 0 0 1-5.5 5.5A5.5 5.5 0 0 1 8 34.2a5.5 5.5 0 0 1 5.5-5.5zm10.3 7l.1-1.5v-1.4l2.9-2.1c.2-.2.4-.6.2-1L24 25c-.1-.3-.5-.5-.8-.3L20 26.1a11.9 11.9 0 0 0-2.5-1.4l-.3-3.6c0-.4-.4-.6-.7-.6h-5.7c-.3 0-.6.2-.6.6l-.4 3.6c-.9.4-1.7.8-2.5 1.4L4 24.6c-.3-.1-.7 0-.8.3L.2 29.8a.7.7 0 0 0 .2.9l3 2-.1 1.5.1 1.5-3.1 2c-.3.3-.4.7-.2 1l2.8 4.9c.2.3.6.4.9.3L7 42.3a11.9 11.9 0 0 0 2.5 1.5l.3 3.6c.1.3.4.6.7.6h5.7c.3 0 .6-.3.6-.6l.4-3.6c.9-.4 1.8-.9 2.5-1.5L23 44c.3 0 .7 0 .8-.3l2.9-4.9a.7.7 0 0 0-.2-1zm-10.3 5.1A6.6 6.6 0 0 1 7 34.2a6.6 6.6 0 0 1 6.6-6.6 6.6 6.6 0 0 1 6.6 6.6 6.6 6.6 0 0 1-6.6 6.6z"/>
    <path fill="#ffa000"
          d="M32 5.9a8 7.9 0 0 0-8 7.9 8 7.9 0 0 0 8 7.9 8 7.9 0 0 0 8-8A8 7.9 0 0 0 32 6zm0 2.4a5.5 5.5 0 0 1 5.6 5.5 5.5 5.5 0 0 1-5.6 5.5 5.5 5.5 0 0 1-5.5-5.5A5.5 5.5 0 0 1 32 8.3zm10.3 7l.2-1.5-.2-1.5 3-2c.3-.3.4-.7.2-1l-2.9-4.9c-.2-.3-.5-.4-.9-.3l-3.3 1.6A11.9 11.9 0 0 0 36 4.2L35.6.6c0-.3-.3-.6-.7-.6h-5.6c-.4 0-.7.3-.7.6l-.3 3.6c-1 .4-1.8.9-2.5 1.5L22.4 4c-.3 0-.7 0-.8.3l-2.9 4.9a.7.7 0 0 0 .2 1l3 2-.1 1.5.1 1.4-3 2.1c-.3.2-.5.6-.3 1l2.9 4.8c.2.3.5.5.8.3l3.3-1.5a11.9 11.9 0 0 0 2.5 1.4l.4 3.6c0 .4.3.6.6.6h5.7c.3 0 .7-.2.7-.6l.3-3.6c1-.4 1.8-.8 2.5-1.4l3.3 1.5c.3.1.7 0 .9-.3l2.8-4.9a.7.7 0 0 0-.2-.9zm-10.3 5a6.6 6.6 0 0 1-6.6-6.5A6.6 6.6 0 0 1 32 7.2a6.6 6.6 0 0 1 6.6 6.6 6.6 6.6 0 0 1-6.6 6.6z"/>
    <g stroke-linejoin="round" stroke-width="1.85208333" filter="url(#a)" font-family="sans-serif"
       font-size="7.05555534px" font-weight="400" letter-spacing="0" transform="matrix(1.13398 0 0 1.13398 13.7 -290.2)"
       word-spacing="0">
        <g style="line-height:1.25">
            <path fill="#ff3d00" stroke="#ff3d00"
                  d="M12.4 289.5H1v-2.3h4.6v-9.5q-2.3 2-4.2 2.8v-2.8q2-.7 2.4-1l1.4-1.1q1-.8 1.3-1.5h1.8v13.1h4.2z"
                  aria-label="1" font-family="Franklin Gothic Medium" font-size="22.57777786px" font-weight="700"
                  style="-inkscape-font-specification:'Franklin Gothic Medium, Bold'"/>
        </g>
        <path fill="#689f38" stroke="#689f38" stroke-width="1.6807656219749998"
              style="font-size:22.57777786px;fill:#689f38;fill-opacity:1;stroke:#689f38;stroke-width:1.85208333;stroke-linejoin:round;stroke-miterlimit:4;stroke-dasharray:none;stroke-opacity:1"
              d="M24.5 282q.5.5.8 1.1.3.7.3 1.7t-.4 1.9q-.3.8-1 1.5t-1.8 1q-1 .3-2.2.3-1.2 0-2.4-.3-1.2-.2-2-.6v-2h.2q.8.5 2 .8 1.1.4 2.2.4l1.3-.2q.7-.2 1.2-.6l.6-1q.3-.5.3-1.3t-.3-1.3q-.2-.6-.7-.9-.4-.3-1-.4L20 282h-.9v-1.7h.7q1.6 0 2.5-.6.9-.6.9-1.9 0-.5-.3-1l-.6-.6-1-.3-1-.1q-1 0-2 .3-1.1.3-2 1h-.2V275q.7-.4 2-.7 1.1-.3 2.2-.3t2 .2q.8.2 1.4.7.8.4 1.1 1.1.4.7.4 1.6 0 1.3-.9 2.2-.8 1-2 1.2l1 .4q.7.3 1.1.7z"
              aria-label="3" font-size="22.57777786px"/>
        <path fill="#ffc107" stroke="#ffc107"
              style="font-size:22.57777786px;fill:#ffc107;fill-opacity:1;stroke:#ffc107;stroke-width:1.85208333;stroke-linejoin:round;stroke-miterlimit:4;stroke-dasharray:none;stroke-opacity:1"
              d="M24.5 296.8H13.4v-2.3l2.3-2 2.1-2q2.2-2 3-3.2.7-1.2.7-2.6 0-1.3-.8-2-.9-.7-2.4-.7-1 0-2.1.3-1.2.4-2.3 1.1h-.1v-2.3q.8-.4 2-.7 1.4-.3 2.6-.3 2.5 0 4 1.2 1.4 1.2 1.4 3.3 0 1-.3 1.7-.2.8-.7 1.6-.4.7-1 1.3-.5.7-1.4 1.5l-2.4 2.2-2.4 2h8.9z"
              aria-label="2" font-size="22.57777786px" transform="matrix(1.02024 0 0 .99396 -6 1)"/>
    </g>
</svg>
