<svg xmlns="http://www.w3.org/2000/svg" width="95" height="100" viewBox="0 0 45.6 48">
    <path fill="#e65100"
          d="M13.5 26.3a8 7.9 0 0 0-8 8 8 7.9 0 0 0 8 7.8 8 7.9 0 0 0 7.9-7.9 8 7.9 0 0 0-8-7.9zm0 2.4a5.5 5.5 0 0 1 5.5 5.5 5.5 5.5 0 0 1-5.5 5.5A5.5 5.5 0 0 1 8 34.2a5.5 5.5 0 0 1 5.5-5.5zm10.3 7l.1-1.5v-1.4l2.9-2.1c.2-.2.4-.6.2-1L24 25c-.1-.3-.5-.5-.8-.3L20 26.1a11.9 11.9 0 0 0-2.5-1.4l-.3-3.6c0-.4-.4-.6-.7-.6h-5.7c-.3 0-.6.2-.6.6l-.4 3.6c-.9.4-1.7.8-2.5 1.4L4 24.6c-.3-.1-.7 0-.8.3L.2 29.8a.7.7 0 0 0 .2.9l3 2-.1 1.5.1 1.5-3.1 2c-.3.3-.4.7-.2 1l2.8 4.9c.2.3.6.4.9.3L7 42.3a11.9 11.9 0 0 0 2.5 1.5l.3 3.6c.1.3.4.6.7.6h5.7c.3 0 .6-.3.6-.6l.4-3.6c.9-.4 1.8-.9 2.5-1.5L23 44c.3 0 .7 0 .8-.3l2.9-4.9a.7.7 0 0 0-.2-1zm-10.3 5.1A6.6 6.6 0 0 1 7 34.2a6.6 6.6 0 0 1 6.6-6.6 6.6 6.6 0 0 1 6.6 6.6 6.6 6.6 0 0 1-6.6 6.6z"/>
    <path fill="#ffa000"
          d="M32 5.9a8 7.9 0 0 0-8 7.9 8 7.9 0 0 0 8 7.9 8 7.9 0 0 0 8-8A8 7.9 0 0 0 32 6zm0 2.4a5.5 5.5 0 0 1 5.6 5.5 5.5 5.5 0 0 1-5.6 5.5 5.5 5.5 0 0 1-5.5-5.5A5.5 5.5 0 0 1 32 8.3zm10.3 7l.2-1.5-.2-1.5 3-2c.3-.3.4-.7.2-1l-2.9-4.9c-.2-.3-.5-.4-.9-.3l-3.3 1.6A11.9 11.9 0 0 0 36 4.2L35.6.6c0-.3-.3-.6-.7-.6h-5.6c-.4 0-.7.3-.7.6l-.3 3.6c-1 .4-1.8.9-2.5 1.5L22.4 4c-.3 0-.7 0-.8.3l-2.9 4.9a.7.7 0 0 0 .2 1l3 2-.1 1.5.1 1.4-3 2.1c-.3.2-.5.6-.3 1l2.9 4.8c.2.3.5.5.8.3l3.3-1.5a11.9 11.9 0 0 0 2.5 1.4l.4 3.6c0 .4.3.6.6.6h5.7c.3 0 .7-.2.7-.6l.3-3.6c1-.4 1.8-.8 2.5-1.4l3.3 1.5c.3.1.7 0 .9-.3l2.8-4.9a.7.7 0 0 0-.2-.9zm-10.3 5a6.6 6.6 0 0 1-6.6-6.5A6.6 6.6 0 0 1 32 7.2a6.6 6.6 0 0 1 6.6 6.6 6.6 6.6 0 0 1-6.6 6.6z"/>
    <path fill="#1976d2" d="M16.8 19.2h23.9v26.6H16.8z"/>
    <path fill="#42a5f5"
          d="M17.6 22.2H40v1H17.6zm0 3.3H40v1H17.6zm0 3.2H40v1H17.6zm0 3.2H40v1H17.6zm0 3.2H40v1H17.6zm0 3.3H40v1H17.6zm0 3.2H40v1H17.6z"/>
    <path fill="#42a5f5"
          d="M37.4 20v25h-1V20zm-3.3 0v25h-1V20zm-3.3 0v25h-1V20zm-3.3 0v25h-1V20zm-3.3 0v25h-1V20zM21 20v25h-1V20z"/>
    <path fill-opacity=".2" d="M44 31.7L27.4 48l-5-4.8L39 26.9z"/>
    <path fill="#ffa000" d="M45.6 31.6L29 48 24 43l16.6-16.2z"/>
    <path fill="#9f6400"
          d="M30.4 36.7l2.6 2.6-1.2 1.1-2.5-2.5zm5.8-5.6l2.5 2.5-1.1 1.2-2.6-2.5zM33.5 36.7L32 35.2l1.2-1.2 1.5 1.5zm6-5.9L38 29.4l1.1-1.2 1.5 1.5zM27.8 42.3l-1.5-1.5 1.1-1.1L29 41z"/>
</svg>
