<svg xmlns="http://www.w3.org/2000/svg" width="95" height="100" viewBox="0 0 45.6 48">
    <path fill="#e65100"
          d="M13.5 26.3a8 7.9 0 0 0-8 8 8 7.9 0 0 0 8 7.8 8 7.9 0 0 0 7.9-7.9 8 7.9 0 0 0-8-7.9zm0 2.4a5.5 5.5 0 0 1 5.5 5.5 5.5 5.5 0 0 1-5.5 5.5A5.5 5.5 0 0 1 8 34.2a5.5 5.5 0 0 1 5.5-5.5zm10.3 7l.1-1.5v-1.4l2.9-2.1c.2-.2.4-.6.2-1L24 25c-.1-.3-.5-.5-.8-.3L20 26.1a11.9 11.9 0 0 0-2.5-1.4l-.3-3.6c0-.4-.4-.6-.7-.6h-5.7c-.3 0-.6.2-.6.6l-.4 3.6c-.9.4-1.7.8-2.5 1.4L4 24.6c-.3-.1-.7 0-.8.3L.2 29.8a.7.7 0 0 0 .2.9l3 2-.1 1.5.1 1.5-3.1 2c-.3.3-.4.7-.2 1l2.8 4.9c.2.3.6.4.9.3L7 42.3a11.9 11.9 0 0 0 2.5 1.5l.3 3.6c.1.3.4.6.7.6h5.7c.3 0 .6-.3.6-.6l.4-3.6c.9-.4 1.8-.9 2.5-1.5L23 44c.3 0 .7 0 .8-.3l2.9-4.9a.7.7 0 0 0-.2-1zm-10.3 5.1A6.6 6.6 0 0 1 7 34.2a6.6 6.6 0 0 1 6.6-6.6 6.6 6.6 0 0 1 6.6 6.6 6.6 6.6 0 0 1-6.6 6.6z"/>
    <path fill="#ffa000"
          d="M32 5.9a8 7.9 0 0 0-8 7.9 8 7.9 0 0 0 8 7.9 8 7.9 0 0 0 8-8A8 7.9 0 0 0 32 6zm0 2.4a5.5 5.5 0 0 1 5.6 5.5 5.5 5.5 0 0 1-5.6 5.5 5.5 5.5 0 0 1-5.5-5.5A5.5 5.5 0 0 1 32 8.3zm10.3 7l.2-1.5-.2-1.5 3-2c.3-.3.4-.7.2-1l-2.9-4.9c-.2-.3-.5-.4-.9-.3l-3.3 1.6A11.9 11.9 0 0 0 36 4.2L35.6.6c0-.3-.3-.6-.7-.6h-5.6c-.4 0-.7.3-.7.6l-.3 3.6c-1 .4-1.8.9-2.5 1.5L22.4 4c-.3 0-.7 0-.8.3l-2.9 4.9a.7.7 0 0 0 .2 1l3 2-.1 1.5.1 1.4-3 2.1c-.3.2-.5.6-.3 1l2.9 4.8c.2.3.5.5.8.3l3.3-1.5a11.9 11.9 0 0 0 2.5 1.4l.4 3.6c0 .4.3.6.6.6h5.7c.3 0 .7-.2.7-.6l.3-3.6c1-.4 1.8-.8 2.5-1.4l3.3 1.5c.3.1.7 0 .9-.3l2.8-4.9a.7.7 0 0 0-.2-.9zm-10.3 5a6.6 6.6 0 0 1-6.6-6.5A6.6 6.6 0 0 1 32 7.2a6.6 6.6 0 0 1 6.6 6.6 6.6 6.6 0 0 1-6.6 6.6z"/>
    <path fill="red"
          d="M35.3 48c-.9 0-1.6-.5-1.6-1.6v-21l-6 6.2c-.5.5-1.7.5-2.3 0-.5-.6-.5-1.8 0-2.3l9.9-10.1 9.8 10.1a1.6 1.6 0 0 1 0 2.3 1.6 1.6 0 0 1-2.2 0l-6-6.1v20.9c0 1-.7 1.6-1.6 1.6z"/>
</svg>
