<svg xmlns="http://www.w3.org/2000/svg" width="100px" height="100px" viewBox="0 0 48 48">
    <path fill="#0063ff" d="M48 24a24 24 0 1 1-48 0 24 24 0 0 1 48 0z"/>
    <g style="line-height:1.25">
        <path fill="#fff" stroke-width=".47999999"
              d="M25.9 29.7h-4v-1q0-2 .6-3.3.6-1.3 2.6-2.9 2-1.6 2.3-2 .6-.8.6-1.8 0-1.3-1-2.2-1-1-2.8-1-1.7 0-2.9 1-1.1 1-1.6 3l-4.1-.5Q15.8 16 18 14q2.3-2 6-2 3.8 0 6.1 2t2.3 4.7q0 1.5-.8 2.9-.9 1.3-3.6 3.6-1.4 1.1-1.8 1.9-.3.7-.3 2.5zm-4 6v-4.4h4.4v4.5z"
              aria-label="?" font-family="Arial" font-size="32px" font-weight="700" letter-spacing="0"
              style="-inkscape-font-specification:'Arial Bold'" word-spacing="0"/>
    </g>
</svg>
