<?xml version="1.0" encoding="UTF-8" standalone="no"?>
<svg
        xmlns:dc="http://purl.org/dc/elements/1.1/"
        xmlns:cc="http://creativecommons.org/ns#"
        xmlns:rdf="http://www.w3.org/1999/02/22-rdf-syntax-ns#"
        xmlns:sodipodi="http://sodipodi.sourceforge.net/DTD/sodipodi-0.dtd"
        xmlns:inkscape="http://www.inkscape.org/namespaces/inkscape"
        xmlns="http://www.w3.org/2000/svg"
        width="100"
        height="75.898003"
        viewBox="0 0 48 36.431041"
        version="1.1"
        id="svg6"
        sodipodi:docname="load.svg"
        inkscape:version="0.92.3 (2405546, 2018-03-11)">
    <metadata
            id="metadata12">
        <rdf:RDF>
            <cc:Work
                    rdf:about="">
                <dc:format>image/svg+xml</dc:format>
                <dc:type
                        rdf:resource="http://purl.org/dc/dcmitype/StillImage"/>
                <dc:title></dc:title>
            </cc:Work>
        </rdf:RDF>
    </metadata>
    <defs
            id="defs10"/>
    <sodipodi:namedview
            pagecolor="#ffffff"
            bordercolor="#666666"
            borderopacity="1"
            objecttolerance="10"
            gridtolerance="10"
            guidetolerance="10"
            inkscape:pageopacity="0"
            inkscape:pageshadow="2"
            inkscape:window-width="1920"
            inkscape:window-height="1137"
            id="namedview8"
            showgrid="false"
            inkscape:zoom="2.36"
            inkscape:cx="50"
            inkscape:cy="50"
            inkscape:window-x="1358"
            inkscape:window-y="-8"
            inkscape:window-maximized="1"
            inkscape:current-layer="svg6"/>
    <path
            d="M 38.708063,4.553812 H 20.492504 L 15.938614,-7.8e-5 H 4.5538897 A 4.5538897,4.5538897 0 0 0 0,4.553812 V 31.87715 a 4.5538897,4.5538897 0 0 0 4.5538897,4.55389 H 39.846535 a 3.4154173,3.4154173 0 0 0 3.415417,-3.415417 V 9.107702 a 4.5538897,4.5538897 0 0 0 -4.553889,-4.55389 z"
            id="path2"
            inkscape:connector-curvature="0"
            style="fill:#ffa000;stroke-width:1.13847244"/>
    <path
            d="M 43.489647,11.384647 H 12.864738 A 4.5538897,4.5538897 0 0 0 8.424696,15.141606 L 4.5538897,36.43104 H 40.643466 a 4.5538897,4.5538897 0 0 0 4.440042,-3.756959 l 2.846181,-15.938614 a 4.5538897,4.5538897 0 0 0 -4.440042,-5.35082 z"
            id="path4"
            inkscape:connector-curvature="0"
            style="fill:#ffca28;stroke-width:1.13847244"/>
</svg>
