<?xml version="1.0" encoding="UTF-8" standalone="no"?>
<svg
        xmlns:dc="http://purl.org/dc/elements/1.1/"
        xmlns:cc="http://creativecommons.org/ns#"
        xmlns:rdf="http://www.w3.org/1999/02/22-rdf-syntax-ns#"
        xmlns="http://www.w3.org/2000/svg"
        xmlns:sodipodi="http://sodipodi.sourceforge.net/DTD/sodipodi-0.dtd"
        xmlns:inkscape="http://www.inkscape.org/namespaces/inkscape"
        width="331.71799"
        height="419"
        version="1.1"
        id="svg8"
        sodipodi:docname="logo.svg"
        inkscape:version="0.92.3 (2405546, 2018-03-11)">
    <metadata
            id="metadata14">
        <rdf:RDF>
            <cc:Work
                    rdf:about="">
                <dc:format>image/svg+xml</dc:format>
                <dc:type
                        rdf:resource="http://purl.org/dc/dcmitype/StillImage"/>
                <dc:title></dc:title>
            </cc:Work>
        </rdf:RDF>
    </metadata>
    <defs
            id="defs12"/>
    <sodipodi:namedview
            pagecolor="#ffffff"
            bordercolor="#666666"
            borderopacity="1"
            objecttolerance="10"
            gridtolerance="10"
            guidetolerance="10"
            inkscape:pageopacity="0"
            inkscape:pageshadow="2"
            inkscape:window-width="1920"
            inkscape:window-height="1137"
            id="namedview10"
            showgrid="false"
            inkscape:zoom="0.56324582"
            inkscape:cx="209.5"
            inkscape:cy="209.5"
            inkscape:window-x="1358"
            inkscape:window-y="-8"
            inkscape:window-maximized="1"
            inkscape:current-layer="svg8"/>
    <path
            d="m 132.93071,-0.09751642 c 0,0 5.5,21.80000042 53.3,52.80000042 15.6,10.1 54.3,35.8 62.4,42.2 a 182.8,182.8 0 0 1 50.7,66.999996 c 15,31.5 14.2,80.6 14.2,80.6 0,0 -5,-17.4 -35.3,-45.4 -13.9,-12.8 -48.1,-31 -48.1,-31 0,0 -27.4,-15 -43,-25.2 -25.8,-16.7 -34.3,-31.3 -34.3,-31.3 0,0 -13.8,-20.399996 -18.9,-49.499996 -3.4,-19.8 -1,-60.30000042 -1,-60.30000042 z"
            id="path2"
            inkscape:connector-curvature="0"
            style="fill:#00bb2d;stroke:#00bb2d;stroke-width:1.10000002"/>
    <path
            d="m 40.330709,94.602484 c 0,0 9,26.199996 83.200001,58.199996 24.3,10.5 87,30.8 99.7,37.4 45.9,23.9 61.2,46 75.9,70.8 19.4,33.1 22.2,84.2 22.2,84.2 0,0 -8.6,-23.4 -52.4,-53.2 -21,-14.2 -75.7,-29.8 -75.7,-29.8 -17.7,-4.6 -43.3,-11 -69.1,-21 a 138.9,138.9 0 0 1 -52.900001,-33.2 c -13.6,-14.2 -21.3,-21.1 -29.3,-51.1 -5.3,-20.5 -1.6,-62.299996 -1.6,-62.299996 z"
            id="path4"
            inkscape:connector-curvature="0"
            style="fill:#ffd600;stroke:#ffd600;stroke-width:1.5"/>
    <path
            d="m 0.93070891,214.90248 c 0,0 26.30000009,25 96.30000009,53.5 27.600001,11.1 94.000001,23.9 115.700001,29.2 43.4,10.6 73.5,39 86.3,53.4 24,27 31.8,67.8 31.8,67.8 0,0 -7,-23.8 -62.9,-41.6 -26.2,-8.4 -59.5,-11 -89.6,-13.5 -24.9,-2 -41.6,-0.8 -83.000001,-13.6 -32.7,-10.1 -47.6,-29 -56,-39 a 165.1,165.1 0 0 1 -28,-46.8 c -6.7000001,-17.4 -10.60000009,-49.4 -10.60000009,-49.4 z"
            id="path6"
            inkscape:connector-curvature="0"
            style="fill:#f80000;stroke:#f80000;stroke-width:1.39999998"/>
</svg>
