<svg xmlns="http://www.w3.org/2000/svg" width="100.00001" height="36.75" viewBox="0 0 26.5 9.7">
  <g fill="#939" stroke-width=".50040555" aria-label="mod" font-family="Arial" font-size="13.34414959px" font-weight="700" letter-spacing="0" style="line-height:1.25" word-spacing="0">
    <path d="M0 2.6h1.7v1q.9-1.1 2.1-1.1.7 0 1.2.3.5.2.8.8.4-.6 1-.8.5-.3 1.1-.3.8 0 1.3.3t.8.9q.2.4.2 1.4v4.5H8.3v-4q0-1-.2-1.3-.2-.4-.7-.4l-.8.2q-.3.3-.4.7-.2.5-.2 1.4v3.4H4.2V5.8L4 4.5 3.8 4 3.2 4q-.4 0-.7.2-.4.2-.5.7-.2.4-.2 1.4v3.4H0zM11.6 6q0-1 .4-1.8.5-.8 1.3-1.3.8-.4 1.8-.4 1.6 0 2.6 1t1 2.6q0 1.6-1 2.6t-2.6 1q-1 0-1.8-.4T12 8q-.4-.8-.4-2zm1.8.1q0 1 .5 1.6.5.5 1.2.5t1.2-.5q.5-.6.5-1.6t-.5-1.6q-.5-.5-1.2-.5t-1.2.5q-.5.6-.5 1.6zM26.5 9.6h-1.7v-1l-1 .8q-.6.3-1.2.3-1.2 0-2-1-.9-.9-.9-2.6 0-1.8.8-2.7.9-1 2.1-1 1.2 0 2 1V0h1.9zm-5-3.6q0 1 .4 1.6.4.7 1.2.7.7 0 1-.6.5-.5.5-1.6 0-1.2-.4-1.7t-1-.5q-.7 0-1.2.5-.4.5-.4 1.6z" style="-inkscape-font-specification:'Arial Bold'"/>
  </g>
</svg>
