<svg xmlns="http://www.w3.org/2000/svg" width="99.999771" height="90.041687" viewBox="0 0 26.5 23.8">
    <g stroke-linejoin="round" stroke-width="1.85208333" font-family="sans-serif" font-size="7.05555534px"
       font-weight="400" letter-spacing="0" word-spacing="0">
        <g style="line-height:1.25">
            <path fill="#ff3d00" stroke="#ff3d00"
                  d="M12.4 16.3H1V14h4.6V4.6q-2.3 2-4.2 2.7V4.6l2.4-1 1.4-1.2Q6 1.6 6.4 1h1.8v13.2h4.2z" aria-label="1"
                  font-family="Franklin Gothic Medium" font-size="22.57777786px" font-weight="700"
                  style="-inkscape-font-specification:'Franklin Gothic Medium, Bold'"/>
        </g>
        <path fill="#689f38" stroke="#689f38" stroke-width="1.6807656219749998"
              style="font-size:22.57777786px;fill:#689f38;fill-opacity:1;stroke:#689f38;stroke-width:1.85208333;stroke-linejoin:round;stroke-miterlimit:4;stroke-dasharray:none;stroke-opacity:1"
              d="M24.5 8.9q.5.4.8 1 .3.7.3 1.7t-.4 2q-.3.8-1 1.4-.7.7-1.8 1-1 .4-2.2.4-1.2 0-2.4-.3t-2-.7v-2h.2q.8.5 2 .9 1.1.3 2.2.3l1.3-.2q.7-.2 1.2-.6.4-.4.6-1 .3-.5.3-1.3t-.3-1.3q-.2-.6-.7-.9-.4-.3-1-.4h-2.4V7h.7q1.6 0 2.5-.6.9-.6.9-1.8 0-.6-.3-1-.2-.4-.6-.7l-1-.3-1-.1q-1 0-2 .3-1.1.4-2 1h-.2V1.8q.7-.4 2-.6 1.1-.3 2.2-.3t2 .2q.8.2 1.4.6.8.5 1.1 1.2.4.6.4 1.5 0 1.3-.9 2.2-.8 1-2 1.2v.1q.4 0 1 .4.7.2 1.1.6z"
              aria-label="3" font-size="22.57777786px"/>
        <path fill="#ffc107" stroke="#ffc107"
              style="font-size:22.57777786px;fill:#ffc107;fill-opacity:1;stroke:#ffc107;stroke-width:1.85208333;stroke-linejoin:round;stroke-miterlimit:4;stroke-dasharray:none;stroke-opacity:1"
              d="M24.5 296.8H13.4v-2.3l2.3-2 2.1-2q2.2-2 3-3.2.7-1.2.7-2.6 0-1.3-.8-2-.9-.7-2.4-.7-1 0-2.1.3-1.2.4-2.3 1.1h-.1v-2.3q.8-.4 2-.7 1.4-.3 2.6-.3 2.5 0 4 1.2 1.4 1.2 1.4 3.3 0 1-.3 1.7-.2.8-.7 1.6-.4.7-1 1.3-.5.7-1.4 1.5l-2.4 2.2-2.4 2h8.9z"
              aria-label="2" font-size="22.57777786px" transform="matrix(1.02024 0 0 .99396 -6 -272.1)"/>
    </g>
</svg>
