<svg xmlns="http://www.w3.org/2000/svg" width="100" height="100" viewBox="0 0 26.5 26.5">
    <g transform="translate(2.6) scale(.80126)">
        <rect width="26.458334" height="10.583333" fill="#3f51b5" ry="2.4096069"/>
        <rect width="26.458334" height="22.489584" y="4" fill="#bbdefb" ry="0"/>
        <g style="line-height:1.25">
            <path fill="#1976d2"
                  d="M9.8 21.2H9q-2.3-2.6-2.3-6 0-2 .8-3.6T9 9.3h1q-1.2 1.6-1.6 3-.4 1.4-.4 3t.5 3.1Q9 20 9.9 21.2zm6.5-2.4h-1.8l-1.4-2.5-1.6 2.5h-1.3l2.2-3.6-2-3.4h1.8l1.2 2 1.2-2H16l-2 3zm.3-9.5h1q2.2 2.6 2.2 6 0 2-.7 3.6-.8 1.6-1.6 2.3h-.9q1.1-1.6 1.5-3 .5-1.4.5-3 0-3.2-2-5.9z"
                  aria-label="(x)" font-family="Franklin Gothic Medium" font-size="14.11111069px" font-weight="400"
                  letter-spacing="0" style="-inkscape-font-specification:'Franklin Gothic Medium, '" word-spacing="0"/>
        </g>
    </g>
    <path fill="#00bb2f"
          d="M5.7 10.6c.5 0 .9.3.9.9V23l3.3-3.4c.3-.3 1-.3 1.2 0 .3.3.3 1 0 1.2l-5.4 5.6-5.4-5.6a.9.9 0 0 1 0-1.2.9.9 0 0 1 1.2 0L5 23V11.5c0-.6.3-.9.8-.9z"/>
    <g stroke-linejoin="round" stroke-width="1.85208333" font-family="sans-serif" font-size="7.05555534px"
       font-weight="400" letter-spacing="0" word-spacing="0">
        <g style="line-height:1.25">
            <path fill="#ff3d00" stroke="#ff3d00" stroke-width="1.02049791483"
                  d="M18.7 22.4h-6.3V21H15v-5.2q-1.3 1.1-2.3 1.5v-1.5l1.3-.5.7-.7q.5-.4.7-.8h1v7.3h2.3z" aria-label="1"
                  font-family="Franklin Gothic Medium" font-size="22.57777786px" font-weight="700"
                  style="-inkscape-font-specification:'Franklin Gothic Medium, Bold'"/>
        </g>
        <path fill="#689f38" stroke="#689f38" stroke-width="1.02049791483"
              d="M25.4 18.3q.3.2.4.5.2.4.2 1l-.2 1q-.2.5-.6.8-.4.4-1 .6-.5.2-1.2.2l-1.3-.2-1.1-.3v-1.1h.1l1.1.5 1.2.1h.7l.7-.4.3-.6q.2-.3.2-.7 0-.4-.2-.7 0-.3-.4-.5-.2-.2-.5-.2h-1.3v-1h.3q1 0 1.4-.4.5-.3.5-1l-.1-.5-.4-.4-.5-.2H23l-1 .1q-.7.2-1.2.6v-1.1q.3-.3 1-.4l1.2-.1h1.1l.8.4q.4.3.6.7.2.3.2.8 0 .7-.5 1.2-.4.6-1 .7l.5.2.6.4z"
              aria-label="3" font-size="22.57777786px"/>
        <path fill="#ffc107" stroke="#ffc107"
              d="M24.5 296.8H13.4v-2.3l2.3-2 2.1-2q2.2-2 3-3.2.7-1.2.7-2.6 0-1.3-.8-2-.9-.7-2.4-.7-1 0-2.1.3-1.2.4-2.3 1.1h-.1v-2.3q.8-.4 2-.7 1.4-.3 2.6-.3 2.5 0 4 1.2 1.4 1.2 1.4 3.3 0 1-.3 1.7-.2.8-.7 1.6-.4.7-1 1.3-.5.7-1.4 1.5l-2.4 2.2-2.4 2h8.9z"
              aria-label="2" font-size="22.57777786px" transform="matrix(.56215 0 0 .54767 8.6 -136.6)"/>
    </g>
</svg>
