<svg xmlns="http://www.w3.org/2000/svg" width="100" height="100" viewBox="0 0 26.5 26.5">
  <rect width="21.200005" height="8.4800014" x="2.6" fill="#3f51b5" ry="1.9307216"/>
  <rect width="21.200005" height="18.020004" x="2.6" y="3.2" fill="#bbdefb" ry="0"/>
  <path fill="#1976d2" d="M10.5 17h-.7Q8 14.9 8 12.2q0-1.6.6-3Q9.3 8 9.8 7.6h.8q-1 1.2-1.3 2.4-.3 1-.3 2.4 0 1.2.4 2.4.4 1.3 1.1 2.3zm5.2-2h-1.5l-1.1-2-1.3 2h-1l1.7-2.8L11 9.5h1.5l1 1.6.9-1.6h1.1l-1.6 2.4zm.2-7.5h.8q1.8 2 1.8 4.8 0 1.6-.6 2.8-.6 1.3-1.3 1.9H16q.9-1.3 1.2-2.4.4-1.1.4-2.4 0-2.6-1.6-4.7z" aria-label="(x)" font-family="Franklin Gothic Medium" font-size="14.11111069px" font-weight="400" letter-spacing="0" style="line-height:1.25;-inkscape-font-specification:'Franklin Gothic Medium, '" word-spacing="0"/>
  <path fill="#00bb2f" d="M5.7 10.6c.5 0 .9.3.9.9V23l3.3-3.4c.3-.3 1-.3 1.2 0 .3.3.3 1 0 1.2l-5.4 5.6-5.4-5.6a.9.9 0 0 1 0-1.2.9.9 0 0 1 1.2 0L5 23V11.5c0-.6.3-.9.8-.9z"/>
  <path fill="#ff3d00" stroke="#ff3d00" stroke-linejoin="round" stroke-width="1.02049792" d="M18.7 22.4h-6.3V21H15v-5.2q-1.3 1.1-2.3 1.5v-1.5l1.3-.5.7-.7q.5-.4.7-.8h1v7.3h2.3z" aria-label="1" font-family="Franklin Gothic Medium" font-size="22.57777786px" font-weight="700" letter-spacing="0" style="line-height:1.25;-inkscape-font-specification:'Franklin Gothic Medium, Bold'" word-spacing="0"/>
  <path fill="#689f38" stroke="#689f38" stroke-linejoin="round" stroke-width="1.02049792" d="M25.4 18.3q.3.2.4.5.2.4.2 1l-.2 1q-.2.5-.6.8-.4.4-1 .6-.5.2-1.2.2l-1.3-.2-1.1-.3v-1.1h.1l1.1.5 1.2.1h.7l.7-.4.3-.6q.2-.3.2-.7 0-.4-.2-.7 0-.3-.4-.5-.2-.2-.5-.2h-1.3v-1h.3q1 0 1.4-.4.5-.3.5-1l-.1-.5-.4-.4-.5-.2H23l-1 .1q-.7.2-1.2.6v-1.1q.3-.3 1-.4l1.2-.1h1.1l.8.4q.4.3.6.7.2.3.2.8 0 .7-.5 1.2-.4.6-1 .7l.5.2.6.4z" aria-label="3" font-family="sans-serif" font-size="22.57777786px" font-weight="400" letter-spacing="0" word-spacing="0"/>
  <path fill="#ffc107" stroke="#ffc107" stroke-linejoin="round" stroke-width="1.02765203" d="M22.4 26H16v-1.3l1.3-1.1 1.2-1.1q1.2-1.1 1.7-1.8.4-.6.4-1.4 0-.7-.5-1-.5-.5-1.3-.5l-1.2.2q-.7.2-1.3.6v-1.2q.4-.3 1-.4l1.5-.2q1.4 0 2.3.7.8.6.8 1.8 0 .5-.2.9l-.4.9-.5.7-.8.8-1.4 1.2-1.3 1.1h5z" aria-label="2" font-family="sans-serif" font-size="22.57777786px" font-weight="400" letter-spacing="0" word-spacing="0"/>
</svg>
