<svg xmlns="http://www.w3.org/2000/svg" width="100" height="100" viewBox="0 0 26.5 26.5">
    <g transform="translate(2.6) scale(.80126)">
        <rect width="26.458334" height="10.583333" fill="#3f51b5" ry="2.4096069"/>
        <rect width="26.458334" height="22.489584" y="4" fill="#bbdefb" ry="0"/>
        <g style="line-height:1.25">
            <path fill="#1976d2"
                  d="M9.8 21.2H9q-2.3-2.6-2.3-6 0-2 .8-3.6T9 9.3h1q-1.2 1.6-1.6 3-.4 1.4-.4 3t.5 3.1Q9 20 9.9 21.2zm6.5-2.4h-1.8l-1.4-2.5-1.6 2.5h-1.3l2.2-3.6-2-3.4h1.8l1.2 2 1.2-2H16l-2 3zm.3-9.5h1q2.2 2.6 2.2 6 0 2-.7 3.6-.8 1.6-1.6 2.3h-.9q1.1-1.6 1.5-3 .5-1.4.5-3 0-3.2-2-5.9z"
                  aria-label="(x)" font-family="Franklin Gothic Medium" font-size="14.11111069px" font-weight="400"
                  letter-spacing="0" style="-inkscape-font-specification:'Franklin Gothic Medium, '" word-spacing="0"/>
        </g>
    </g>
    <path fill="#00bb2f"
          d="M5.7 10.6c.5 0 .9.3.9.9V23l3.3-3.4c.3-.3 1-.3 1.2 0 .3.3.3 1 0 1.2l-5.4 5.6-5.4-5.6a.9.9 0 0 1 0-1.2.9.9 0 0 1 1.2 0L5 23V11.5c0-.6.3-.9.8-.9z"/>
    <g stroke-linejoin="round" stroke-width="1.85208333" font-family="sans-serif" font-size="7.05555534px"
       font-weight="400" letter-spacing="0" word-spacing="0">
        <g style="line-height:1.25">
            <path fill="#ff3d00" stroke="#ff3d00" stroke-width="1.1374754979528001"
                  d="M18.4 26h-1.7l-.7-2.1h-3.3l-.7 2h-1.4l3-8.6h1.8zm-2.8-3.4l-1.2-3.9-1.2 4z" aria-label="A"
                  font-family="Franklin Gothic Medium" font-size="21.16666603px"
                  style="-inkscape-font-specification:'Franklin Gothic Medium, '"/>
        </g>
        <g style="line-height:1.25">
            <path fill="#689f38" stroke="#689f38" stroke-width="1.1374754979528001"
                  d="M24.5 22.8l1.4.2q0 1.2-1 2.1-.9.8-2.2.8-1.3 0-2-.6t-1-1.6q-.5-1-.5-2.3 0-2 .9-3.1 1-1.3 2.6-1.3 1.3 0 2.1.8.9.8 1.1 2.3l-1.4.1q-.4-2-1.8-2-.9 0-1.4 1-.4.7-.4 2.2 0 1.6.5 2.4.5.8 1.4.8.6 0 1.2-.5.4-.6.5-1.2z"
                  aria-label="C" font-family="Franklin Gothic Medium" font-size="21.16666603px"
                  style="-inkscape-font-specification:'Franklin Gothic Medium, '"/>
        </g>
        <g style="line-height:1.25">
            <path fill="#ffc107" stroke="#ffc107" stroke-width="1.1374754979528001"
                  d="M15 22.4v-8.6h3.4q.8 0 1.4.2.5.1 1 .7.3.6.3 1.3 0 .8-.3 1.3-.5.5-1.3.6 1 .2 1.5.8.5.7.5 1.5 0 1-.6 1.6-.8.6-2.2.6zm1.5-5h1.8q.6 0 1-.3.3-.4.3-1 0-.5-.4-.8-.3-.3-.9-.3h-1.8zm0 3.7h2q.6 0 1-.3t.4-.9q0-.5-.4-1-.4-.2-1-.2h-2z"
                  aria-label="B" font-family="Franklin Gothic Medium" font-size="21.16666603px"
                  style="-inkscape-font-specification:'Franklin Gothic Medium, '"/>
        </g>
    </g>
</svg>
