<svg xmlns="http://www.w3.org/2000/svg" width="100" height="100" viewBox="0 0 26.5 26.5">
    <g transform="translate(2.6) scale(.80126)">
        <rect width="26.458334" height="10.583333" fill="#3f51b5" ry="2.4096069"/>
        <rect width="26.458334" height="22.489584" y="4" fill="#bbdefb" ry="0"/>
        <g style="line-height:1.25">
            <path fill="#1976d2"
                  d="M9.8 21.2H9q-2.3-2.6-2.3-6 0-2 .8-3.6T9 9.3h1q-1.2 1.6-1.6 3-.4 1.4-.4 3t.5 3.1Q9 20 9.9 21.2zm6.5-2.4h-1.8l-1.4-2.5-1.6 2.5h-1.3l2.2-3.6-2-3.4h1.8l1.2 2 1.2-2H16l-2 3zm.3-9.5h1q2.2 2.6 2.2 6 0 2-.7 3.6-.8 1.6-1.6 2.3h-.9q1.1-1.6 1.5-3 .5-1.4.5-3 0-3.2-2-5.9z"
                  aria-label="(x)" font-family="Franklin Gothic Medium" font-size="14.11111069px" font-weight="400"
                  letter-spacing="0" style="-inkscape-font-specification:'Franklin Gothic Medium, '" word-spacing="0"/>
        </g>
    </g>
    <path fill="#00bb2f"
          d="M5.7 10.6c.5 0 .9.3.9.9V23l3.3-3.4c.3-.3 1-.3 1.2 0 .3.3.3 1 0 1.2l-5.4 5.6-5.4-5.6a.9.9 0 0 1 0-1.2.9.9 0 0 1 1.2 0L5 23V11.5c0-.6.3-.9.8-.9z"/>
    <path fill="#1976d2" d="M13.3 13.3h11v12.2h-11z"/>
    <path fill="#42a5f5"
          d="M13.6 14.6H24v.5H13.6zm0 1.5H24v.5H13.6zm0 1.5H24v.5H13.6zm0 1.5H24v.5H13.6zm0 1.5H24v.4H13.6zm0 1.5H24v.4H13.6zm0 1.4H24v.5H13.6z"/>
    <path fill="#42a5f5"
          d="M22.7 13.6v11.5h-.4V13.6zm-1.5 0v11.5h-.5V13.6zm-1.5 0v11.5h-.5V13.6zm-1.5 0v11.5h-.5V13.6zm-1.5 0v11.5h-.5V13.6zm-1.6 0v11.5h-.4V13.6z"/>
    <path fill-opacity=".2" d="M25.8 19L18 26.5l-2.3-2.2 7.7-7.5z"/>
    <path fill="#ffa000" d="M26.5 19l-7.6 7.4-2.3-2.2 7.6-7.5z"/>
    <path fill="#9f6400"
          d="M19.5 21.3l1.2 1.2-.5.5L19 22zm2.7-2.6l1.1 1.2-.5.5-1.2-1.1zM21 21.3l-.7-.7.5-.5.7.6zm2.7-2.7l-.7-.7.5-.5.7.7zm-5.4 5.3l-.7-.7.5-.5.7.6z"/>
</svg>
