<svg xmlns="http://www.w3.org/2000/svg" width="100" height="100" viewBox="0 0 26.5 26.5">
  <rect width="21.200005" height="8.4800014" x="2.6" fill="#3f51b5" ry="1.9307216"/>
  <rect width="21.200005" height="18.020004" x="2.6" y="3.2" fill="#bbdefb" ry="0"/>
  <path fill="#1976d2" d="M10.5 17h-.7Q8 14.9 8 12.2q0-1.6.6-3Q9.3 8 9.8 7.6h.8q-1 1.2-1.3 2.4-.3 1-.3 2.4 0 1.2.4 2.4.4 1.3 1.1 2.3zm5.2-2h-1.5l-1.1-2-1.3 2h-1l1.7-2.8L11 9.5h1.5l1 1.6.9-1.6h1.1l-1.6 2.4zm.2-7.5h.8q1.8 2 1.8 4.8 0 1.6-.6 2.8-.6 1.3-1.3 1.9H16q.9-1.3 1.2-2.4.4-1.1.4-2.4 0-2.6-1.6-4.7z" aria-label="(x)" font-family="Franklin Gothic Medium" font-size="14.11111069px" font-weight="400" letter-spacing="0" style="line-height:1.25;-inkscape-font-specification:'Franklin Gothic Medium, '" word-spacing="0"/>
  <path fill="#00bb2f" d="M5.7 10.6c.5 0 .9.3.9.9V23l3.3-3.4c.3-.3 1-.3 1.2 0 .3.3.3 1 0 1.2l-5.4 5.6-5.4-5.6a.9.9 0 0 1 0-1.2.9.9 0 0 1 1.2 0L5 23V11.5c0-.6.3-.9.8-.9z"/>
  <path fill="#1976d2" d="M13.3 13.3h11v12.2h-11z"/>
  <path fill="#42a5f5" d="M13.6 14.6H24v.5H13.6zm0 1.5H24v.5H13.6zm0 1.5H24v.5H13.6zm0 1.5H24v.5H13.6zm0 1.5H24v.4H13.6zm0 1.5H24v.4H13.6zm0 1.4H24v.5H13.6z"/>
  <path fill="#42a5f5" d="M22.7 13.6v11.5h-.4V13.6zm-1.5 0v11.5h-.5V13.6zm-1.5 0v11.5h-.5V13.6zm-1.5 0v11.5h-.5V13.6zm-1.5 0v11.5h-.5V13.6zm-1.6 0v11.5h-.4V13.6z"/>
  <path fill-opacity=".2" d="M25.8 19L18 26.5l-2.3-2.2 7.7-7.5z"/>
  <path fill="#ffa000" d="M26.5 19l-7.6 7.4-2.3-2.2 7.6-7.5z"/>
  <path fill="#9f6400" d="M19.5 21.3l1.2 1.2-.5.5-1.2-1zm2.7-2.6l1.1 1.2-.5.5-1.2-1.1zM21 21.3l-.7-.7.5-.5.7.6zm2.7-2.7l-.7-.7.5-.5.7.7zm-5.4 5.3l-.7-.7.5-.5.7.6z"/>
</svg>
