<svg xmlns="http://www.w3.org/2000/svg" width="100" height="100">
  <path fill="#9c27b0" d="M38.4 0v38.4H0v13.2h38.4V90h13.2V51.6H90V38.4H51.6V0z"/>
  <g fill="#cfd8dc" transform="matrix(3.39623 0 0 3.39623 10 -908.7)">
    <circle cx="5.2916665" cy="286.94583" r="2.6458333"/>
    <path d="M0 297v-2.1c0-1.7 3-3.2 5.3-3.2 2.5 0 5.2 1.4 5.3 3.2v2.1z"/>
  </g>
  <g fill="#cfd8dc" transform="matrix(3.39623 0 0 3.39623 10 -908.7)">
    <circle cx="21.166666" cy="286.94583" r="2.6458333"/>
    <path d="M15.9 297v-2.1c0-1.7 2.9-3.2 5.3-3.2 2.5 0 5.2 1.4 5.3 3.2v2.1z"/>
  </g>
  <g transform="matrix(3.39623 0 0 3.39623 10 -908.7)">
    <circle cx="13.229167" cy="284.43228" r="3.3072917" fill="#ffb74d"/>
    <path fill="#546e7a" d="M6.6 297v-2.6c0-2.2 3.7-4 6.6-4 3.2 0 6.6 1.7 6.6 4v2.6z"/>
  </g>
</svg>
