<svg xmlns="http://www.w3.org/2000/svg" width="100" height="100">
  <path fill="#9c27b0" d="M38.4 0v38.4H0v13.2h38.4V90h13.2V51.6H90V38.4H51.6V0z"/>
  <g stroke-linejoin="round" stroke-width="1.85208333" font-family="sans-serif" font-size="7.05555534px" font-weight="400" letter-spacing="0" word-spacing="0">
    <g style="line-height:1.25">
      <path fill="#ff3d00" stroke="#ff3d00" stroke-width="4.6585822416155995" d="M64.5 81H35.8v-5.7h11.6V51.6q-5.8 5-10.6 6.8v-6.8l6-2.5 3.5-3q2-2 3-3.5H54v33.2h10.6z" aria-label="1" font-family="Franklin Gothic Medium" font-size="22.57777786px" font-weight="700" style="-inkscape-font-specification:'Franklin Gothic Medium, Bold'"/>
    </g>
    <path fill="#689f38" stroke="#689f38" stroke-width="4.6585822416155995" d="M94.9 62.5q1.3 1 2 2.5.8 1.7.8 4.2 0 2.6-1 5-.8 2-2.6 3.6-1.7 1.8-4.5 2.5-2.5 1-5.5 1t-6-.7q-3-.8-5-1.8v-5h.4q2 1.2 5 2.2 2.8.8 5.6.8l3.2-.5q1.8-.5 3-1.5 1-1 1.6-2.5.7-1.3.7-3.3 0-2-.7-3.3-.5-1.5-1.8-2.2-1-.8-2.5-1h-6v-4.8h1.7q4 0 6.3-1.5t2.3-4.6q0-1.5-.8-2.5-.5-1-1.5-1.7l-2.5-.8-2.5-.2q-2.5 0-5 .7-2.8 1-5 2.5H74v-5q1.8-1 5-1.5 2.8-.8 5.6-.8 2.7 0 5 .5 2 .5 3.5 1.5 2 1.3 2.8 3 1 1.6 1 3.8 0 3.3-2.3 5.6-2 2.5-5 3v.2q1 0 2.5 1 1.8.5 2.8 1.6z" aria-label="3" font-size="22.57777786px"/>
    <path fill="#ffc107" stroke="#ffc107" d="M24.5 296.8H13.4v-2.3l2.3-2 2.1-2q2.2-2 3-3.2.7-1.2.7-2.6 0-1.3-.8-2-.9-.7-2.4-.7-1 0-2.1.3-1.2.4-2.3 1.1h-.1v-2.3q.8-.4 2-.7 1.4-.3 2.6-.3 2.5 0 4 1.2 1.4 1.2 1.4 3.3 0 1-.3 1.7-.2.8-.7 1.6-.4.7-1 1.3-.5.7-1.4 1.5l-2.4 2.2-2.4 2h8.9z" aria-label="2" font-size="22.57777786px" transform="matrix(2.56623 0 0 2.50013 18.2 -644.4)"/>
  </g>
</svg>
