<svg xmlns="http://www.w3.org/2000/svg" width="100" height="100">
  <path fill="#9c27b0" d="M38.4 0v38.4H0v13.2h38.4V90h13.2V51.6H90V38.4H51.6V0z"/>
  <path fill="#1976d2" d="M40 40h49.8v55.5H40z"/>
  <path fill="#42a5f5" d="M41.7 46.3h46.4v2.1H41.7zm0 6.7h46.4v2.1H41.7zm0 6.7h46.4v2.1H41.7zm0 6.8h46.4v2H41.7zm0 6.7h46.4v2H41.7zm0 6.7h46.4V82H41.7zm0 6.7h46.4v2.1H41.7z"/>
  <path fill="#42a5f5" d="M83 41.7v52h-2.2v-52zm-7 0v52h-2v-52zm-6.8 0v52H67v-52zm-6.9 0v52h-2.1v-52zm-6.8 0v52h-2.2v-52zm-7 0v52h-2v-52z"/>
  <path fill-opacity=".2" d="M96.7 66.1L62 100 51.8 90l34.6-34z"/>
  <path fill="#ffa000" d="M100 65.9L65.4 99.7l-10.3-10 34.5-33.9z"/>
  <path fill="#9f6400" d="M68.3 76.6l5.4 5.2-2.4 2.4L66 79zm12-11.7l5.4 5.2-2.4 2.4-5.4-5.3zM74.8 76.4l-3-3 2.4-2.5 3 3zm12.4-12.2l-3-3 2.3-2.4 3.1 3zM63 88.1l-3.2-3 2.4-2.4 3.1 3z"/>
</svg>
