<svg xmlns="http://www.w3.org/2000/svg" width="100" height="100">
  <path fill="#9c27b0" d="M38.4 0v38.4H0v13.2h38.4V90h13.2V51.6H90V38.4H51.6V0z"/>
  <g stroke-linejoin="round" stroke-width="1.85208333" font-family="sans-serif" font-size="7.05555534px" font-weight="400" letter-spacing="0" word-spacing="0">
    <g style="line-height:1.25">
      <path fill="#ff3d00" stroke="#ff3d00" stroke-width="5.1561073865535" d="M63.2 97.4h-7.5l-3.4-9.2h-15l-3 9.2H28l13-39h8.7zm-12.8-15L45 64.8l-5.6 17.6z" aria-label="A" font-family="Franklin Gothic Medium" font-size="21.16666603px" style="-inkscape-font-specification:'Franklin Gothic Medium, '"/>
    </g>
    <g style="line-height:1.25">
      <path fill="#689f38" stroke="#689f38" stroke-width="5.1561073865535" d="M90.7 83.2l6.7.9q-.5 5.5-4.4 9.7-4.2 3.6-10.3 3.6-5.6 0-9-2.8-3.3-2.7-5-7.2-1.9-4.5-1.9-10.3 0-9 4.2-14.5 4.4-5.5 11.7-5.5 5.8 0 9.7 3.6 4 3.6 5 10.3l-6.7.5q-1.6-8.9-7.8-8.9-4.1 0-6.4 4-2 3.5-2 10.5 0 7.2 2.3 10.9 2.5 3.6 6.4 3.6 2.8 0 5.3-2.5 2-2.5 2.2-5.6z" aria-label="C" font-family="Franklin Gothic Medium" font-size="21.16666603px" style="-inkscape-font-specification:'Franklin Gothic Medium, '"/>
    </g>
    <g style="line-height:1.25">
      <path fill="#ffc107" stroke="#ffc107" stroke-width="5.1561073865535" d="M47.9 81.6v-39h15.3q3.9 0 6.4.5 2.5.9 4.4 3.4 1.7 2.8 1.7 6.1T74 58.2q-2 2.5-5.5 3 4.4.9 6.7 3.6 2.2 2.8 2.2 6.5 0 4.4-2.8 7.5-3.6 2.8-10 2.8zm6.6-22.9H63q2.8 0 4.5-1.4 1.3-1.6 1.3-4.1 0-2.8-1.6-4-1.7-1.3-4.2-1.3h-8.4zm0 17h9.2q2.8 0 4.5-1.4 1.7-1.7 1.7-4.2T68.2 66q-1.7-1.4-4.5-1.4h-9.2z" aria-label="B" font-family="Franklin Gothic Medium" font-size="21.16666603px" style="-inkscape-font-specification:'Franklin Gothic Medium, '"/>
    </g>
  </g>
</svg>
