<svg xmlns="http://www.w3.org/2000/svg" width="100" height="100">
  <path fill="#9c27b0" d="M38.4 0v38.4H0v13.2h38.4V90h13.2V51.6H90V38.4H51.6V0z"/>
  <path fill="#e65100" d="M59.8 72.9a10 9.9 0 0 0-10 10 10 9.9 0 0 0 10 9.7 10 9.9 0 0 0 9.8-9.8 10 9.9 0 0 0-10-10zm0 3a6.9 6.9 0 0 1 6.8 6.9 6.9 6.9 0 0 1-6.8 6.8 6.9 6.9 0 0 1-6.9-6.8 6.9 6.9 0 0 1 6.9-7zm12.8 8.7l.2-1.8V81l3.6-2.6c.2-.3.5-.8.2-1.3L73 71.3c-.1-.4-.6-.7-1-.4l-4 1.7a14.9 14.9 0 0 0-3.1-1.7l-.4-4.5c0-.5-.5-.8-.9-.8h-7.1c-.4 0-.8.3-.8.8l-.5 4.5c-1 .5-2 1-3 1.7l-4.2-1.8c-.4-.2-.9 0-1 .3l-3.8 6.2a.9.9 0 0 0 .3 1l3.7 2.6v3.7l-3.8 2.5c-.4.4-.5.9-.3 1.3l3.5 6.1c.3.4.8.5 1.1.4l4-2a14.9 14.9 0 0 0 3.2 1.9l.3 4.5c.2.3.5.7 1 .7h7c.4 0 .8-.4.8-.7l.5-4.5a13 13 0 0 0 3.1-2l4.1 2.2c.4 0 1 0 1-.4l3.7-6.1a.9.9 0 0 0-.3-1.2zM59.8 91a8.3 8.3 0 0 1-8.2-8.2 8.3 8.3 0 0 1 8.3-8.3 8.3 8.3 0 0 1 8.2 8.3A8.3 8.3 0 0 1 60 91z"/>
  <path fill="#ffa000" d="M82.9 47.4a10 9.9 0 0 0-10 9.9 10 9.9 0 0 0 10 9.8 10 9.9 0 0 0 10-10 10 9.9 0 0 0-10-9.6zm0 3a6.9 6.9 0 0 1 7 6.9 6.9 6.9 0 0 1-7 6.8 6.9 6.9 0 0 1-6.9-6.8 6.9 6.9 0 0 1 6.9-7zM95.8 59l.2-1.8-.2-2 3.7-2.4c.4-.4.5-.9.3-1.3L96 45.5c-.2-.4-.6-.5-1-.4l-4.2 2a14.9 14.9 0 0 0-3-1.8l-.5-4.5c0-.4-.4-.8-.9-.8h-7c-.5 0-.9.4-.9.8l-.3 4.5A11 11 0 0 0 75 47L71 45c-.4 0-.9 0-1 .4l-3.6 6.1a.9.9 0 0 0 .2 1.3l3.8 2.5L70 57l.2 1.8-3.8 2.6c-.4.3-.6.8-.4 1.3l3.7 6c.2.3.6.6 1 .3l4.1-1.8A14.9 14.9 0 0 0 78 69l.5 4.5c0 .5.4.8.8.8h7.1c.4 0 .9-.3.9-.8l.3-4.5c1.3-.5 2.3-1 3.2-1.7l4.1 1.8c.4.2.9 0 1.1-.3l3.5-6.2a.9.9 0 0 0-.2-1.1zm-12.9 6.3a8.3 8.3 0 0 1-8.3-8.1A8.3 8.3 0 0 1 83 49a8.3 8.3 0 0 1 8.2 8.3 8.3 8.3 0 0 1-8.2 8.2z"/>
</svg>
