<svg xmlns="http://www.w3.org/2000/svg" width="100" height="100">
  <path fill="#9c27b0" d="M38.4 0v38.4H0v13.2h38.4V90h13.2V51.6H90V38.4H51.6V0z"/>
  <g transform="matrix(2.26772 0 0 2.26504 40 -572.7)">
    <rect width="26.458334" height="10.583333" y="270.5" fill="#3f51b5" ry="2.4096069"/>
    <rect width="26.458334" height="22.489584" y="274.5" fill="#bbdefb" ry="0"/>
    <g style="line-height:1.25">
      <path fill="#1976d2" stroke-width=".26458332" d="M9.8 291.7H9q-2.3-2.6-2.3-6 0-2 .8-3.6t1.5-2.3h1q-1.2 1.6-1.6 3-.4 1.4-.4 3t.5 3.1q.5 1.6 1.4 2.8zm6.5-2.4h-1.8l-1.4-2.5-1.6 2.5h-1.3l2.2-3.6-2-3.4h1.8l1.2 2 1.2-2H16l-2 3zm.3-9.5h1q2.2 2.6 2.2 6 0 2-.7 3.6-.8 1.6-1.6 2.3h-.9q1.1-1.6 1.5-3 .5-1.4.5-3 0-3.2-2-5.9z" aria-label="(x)" font-family="Franklin Gothic Medium" font-size="14.11111069px" font-weight="400" letter-spacing="0" style="-inkscape-font-specification:'Franklin Gothic Medium, '" word-spacing="0"/>
    </g>
  </g>
</svg>
