<?xml version="1.0" encoding="UTF-8" standalone="no"?>
<svg
        xmlns:dc="http://purl.org/dc/elements/1.1/"
        xmlns:cc="http://creativecommons.org/ns#"
        xmlns:rdf="http://www.w3.org/1999/02/22-rdf-syntax-ns#"
        xmlns:sodipodi="http://sodipodi.sourceforge.net/DTD/sodipodi-0.dtd"
        xmlns:inkscape="http://www.inkscape.org/namespaces/inkscape"
        xmlns="http://www.w3.org/2000/svg"
        width="100"
        height="99.283997"
        viewBox="0 0 48 47.656318"
        version="1.1"
        id="svg6"
        sodipodi:docname="reload.svg"
        inkscape:version="0.92.3 (2405546, 2018-03-11)">
    <metadata
            id="metadata12">
        <rdf:RDF>
            <cc:Work
                    rdf:about="">
                <dc:format>image/svg+xml</dc:format>
                <dc:type
                        rdf:resource="http://purl.org/dc/dcmitype/StillImage"/>
                <dc:title></dc:title>
            </cc:Work>
        </rdf:RDF>
    </metadata>
    <defs
            id="defs10"/>
    <sodipodi:namedview
            pagecolor="#ffffff"
            bordercolor="#666666"
            borderopacity="1"
            objecttolerance="10"
            gridtolerance="10"
            guidetolerance="10"
            inkscape:pageopacity="0"
            inkscape:pageshadow="2"
            inkscape:window-width="1920"
            inkscape:window-height="1137"
            id="namedview8"
            showgrid="false"
            inkscape:zoom="2.36"
            inkscape:cx="50"
            inkscape:cy="50"
            inkscape:window-x="1358"
            inkscape:window-y="-8"
            inkscape:window-maximized="1"
            inkscape:current-layer="svg6"/>
    <path
            d="m 32.4,3.49632 15.6,2.04 -12.84,12.36 z m -16.8,40.8 -15.6,-2.04 12.84,-12.36 z"
            id="path2"
            inkscape:connector-curvature="0"
            style="fill:#ff6f02;stroke-width:1.20000005"/>
    <path
            d="m 4.8,23.89632 a 19.2,19.2 0 0 1 22.8,-18.84 l 0.84,-4.68 a 24,24 0 0 0 -22.56,39.12 l 3.6,-3.12 a 19.2,19.2 0 0 1 -4.68,-12.48 z m 37.8,-15.24 -3.84,3 a 19.2,19.2 0 0 1 -18.36,31.08 l -0.84,4.56 4.44,0.36 a 24,24 0 0 0 18.6,-39 z"
            id="path4"
            inkscape:connector-curvature="0"
            style="fill:#ff6f00;stroke-width:1.20000005"/>
</svg>
