<svg xmlns="http://www.w3.org/2000/svg" width="100" height="90.000168" viewBox="0 0 26.5 23.8">
  <path fill="#90caf9" d="M0 6h26.5v11.8H0z"/>
  <path fill="#3f51b5" d="M13.9 0h-2v2.7c1.9 0 3.4 0 4.2.2.4.1.6.3.8.5.1.2.3.6.3 1.3V19c0 .7-.2 1.1-.3 1.3-.2.2-.4.4-.8.5-.8.3-2.3.3-4.2.2v2.7h2.6a9 9 0 0 0 2.5-.4l1.5-.9 1.6 1a9 9 0 0 0 3 .3h2V21c-1.8 0-3.4 0-4.2-.2-.4-.1-.6-.3-.8-.5l-.3-1.3V4.6c0-.6.2-1 .4-1.2.1-.2.3-.4.7-.5.8-.3 2.4-.3 4.2-.2V0h-2.6a9 9 0 0 0-2.4.4c-.6.2-1.1.5-1.6.9-.4-.4-1-.7-1.5-.9a9 9 0 0 0-3.1-.4z" color="#000" font-family="sans-serif" font-weight="400" overflow="visible" style="line-height:normal;font-variant-ligatures:normal;font-variant-position:normal;font-variant-caps:normal;font-variant-numeric:normal;font-variant-alternates:normal;font-feature-settings:normal;text-indent:0;text-align:start;text-decoration-line:none;text-decoration-style:solid;text-decoration-color:#000;text-transform:none;text-orientation:mixed;shape-padding:0;isolation:auto;mix-blend-mode:normal" white-space="normal"/>
</svg>
