<svg xmlns="http://www.w3.org/2000/svg" width="100" height="100" viewBox="0 0 26.5 26.5">
    <g transform="translate(0 -270.5)">
        <path fill="red" d="M0 270.5V297h26.5v-22.7l-3.8-3.8H0z"/>
        <rect width="21.166666" height="11.244792" x="2.6" y="283.8" fill="#fff" ry="1.4699824"/>
        <g fill="#cfd8dc">
            <path d="M5.3 285.8h15.9v1.3H5.3zM5.3 288.7h15.9v1.3H5.3zM5.3 291.7h15.9v1.3H5.3z"/>
        </g>
        <path fill="#c62828" d="M2.5 270.5v7.3c0 1.1.9 2 2 2h13.8a2 2 0 0 0 2-2V270.5H2.5z"/>
        <path fill="#b0bec5" d="M6.4 270.5v7.3c0 1.1.7 2 1.6 2h10.8c.8 0 1.5-.9 1.5-2V270.5z"/>
        <path d="M14.6 272.5h2.6v5.3h-2.6z"/>
    </g>
</svg>
