<svg xmlns="http://www.w3.org/2000/svg" width="100" height="100" viewBox="0 0 26.5 26.5">
    <g transform="matrix(.72212 .72183 -.72212 .72183 214.2 -197.3)">
        <path fill="#ff9800" d="M0 273.3h13.2v10.6H0z"/>
        <path fill="#dd2c00" d="M0 283.9h13.2v2.6H0z"/>
        <path fill="#ff5722"
              d="M0 286.5v2s3.4.6 4.8 2.8c.6.9-1.6 2.6-1.6 5.6 0 3.9 2 5.4 3.4 5.4s3.4-1.5 3.4-5.4c0-3-2.2-4.7-1.6-5.6 1.5-2.2 4.8-2.7 4.8-2.7v-2H6.6z"/>
        <path fill="#ffcc80"
              d="M0 280.3s.8 1.4 1.4 1.4c1.7-.2 2.3-4.1 2.9-4.1.6 0 1.2 3.1 2.6 3.3 1 .2 2.2-2 2.7-2 .4 0 1 2.2 1.9 2.2.9 0 1.7-2 1.7-2v4.8H0z"/>
        <circle cx="6.6145835" cy="298.9017" r="1.3229166" fill="#fff"/>
    </g>
</svg>
