<svg xmlns="http://www.w3.org/2000/svg" width="101.00043" height="81.820297" viewBox="0 0 26.7 21.6">
    <g stroke-linejoin="round" stroke-width="1.85208333" font-family="sans-serif" font-size="7.05555534px"
       font-weight="400" letter-spacing="0" word-spacing="0">
        <g style="line-height:1.25">
            <path fill="#ff3d00" stroke="#ff3d00"
                  d="M13.5 20.7h-2.7l-1.2-3.3H4.2l-1.1 3.3H.9l4.7-14h3.1zm-4.6-5.4L7 9l-2 6.3z" aria-label="A"
                  font-family="Franklin Gothic Medium" font-size="21.16666603px"
                  style="-inkscape-font-specification:'Franklin Gothic Medium, '"/>
        </g>
        <g style="line-height:1.25">
            <path fill="#689f38" stroke="#689f38"
                  d="M23.4 15.6l2.4.3q-.2 2-1.6 3.5-1.5 1.3-3.7 1.3-2 0-3.2-1-1.2-1-1.8-2.6-.7-1.6-.7-3.7 0-3.2 1.5-5.2 1.6-2 4.2-2 2.1 0 3.5 1.3t1.8 3.7l-2.4.2q-.6-3.2-2.8-3.2-1.5 0-2.3 1.4-.7 1.3-.7 3.8 0 2.6.8 3.9.9 1.3 2.3 1.3 1 0 1.9-.9.7-.9.8-2z"
                  aria-label="C" font-family="Franklin Gothic Medium" font-size="21.16666603px"
                  style="-inkscape-font-specification:'Franklin Gothic Medium, '"/>
        </g>
        <g style="line-height:1.25">
            <path fill="#ffc107" stroke="#ffc107"
                  d="M8 15V1h5.5q1.4 0 2.3.2.9.3 1.6 1.2.6 1 .6 2.2 0 1.2-.6 2-.7.9-2 1.1Q17 8 17.8 9q.8 1 .8 2.3 0 1.6-1 2.7Q16.3 15 14 15zm2.4-8.2h3q1 0 1.6-.5.5-.6.5-1.5 0-1-.6-1.4-.6-.5-1.5-.5h-3zm0 6.1h3.3q1 0 1.6-.5.6-.6.6-1.5t-.6-1.5q-.6-.5-1.6-.5h-3.3z"
                  aria-label="B" font-family="Franklin Gothic Medium" font-size="21.16666603px"
                  style="-inkscape-font-specification:'Franklin Gothic Medium, '"/>
        </g>
    </g>
</svg>
