<svg xmlns="http://www.w3.org/2000/svg" width="100" height="100" viewBox="0 0 26.5 26.5">
    <g transform="matrix(.90142 0 0 .90142 0 0)">
        <rect width="26.458334" height="10.583333" fill="#3f51b5" ry="2.4096069"/>
        <rect width="26.458334" height="22.489584" y="4" fill="#bbdefb" ry="0"/>
        <g style="line-height:1.25">
            <path fill="#1976d2" stroke-width=".26458332"
                  d="M9.8 21.2H9q-2.3-2.6-2.3-6 0-2 .8-3.6T9 9.3h1q-1.2 1.6-1.6 3-.4 1.4-.4 3t.5 3.1Q9 20 9.9 21.2zm6.5-2.4h-1.8l-1.4-2.5-1.6 2.5h-1.3l2.2-3.6-2-3.4h1.8l1.2 2 1.2-2H16l-2 3zm.3-9.5h1q2.2 2.6 2.2 6 0 2-.7 3.6-.8 1.6-1.6 2.3h-.9q1.1-1.6 1.5-3 .5-1.4.5-3 0-3.2-2-5.9z"
                  aria-label="(x)" font-family="Franklin Gothic Medium" font-size="14.11111069px" font-weight="400"
                  letter-spacing="0" style="-inkscape-font-specification:'Franklin Gothic Medium, '" word-spacing="0"/>
        </g>
    </g>
    <path fill="#1976d2" d="M13.2 13.3h11v12.2h-11z"/>
    <path fill="#42a5f5"
          d="M13.6 14.7h10.2v.4H13.6zm0 1.4h10.2v.5H13.6zm0 1.5h10.2v.5H13.6zm0 1.5h10.2v.5H13.6zm0 1.5h10.2v.5H13.6zm0 1.5h10.2v.4H13.6zm0 1.5h10.2v.4H13.6z"/>
    <path fill="#42a5f5"
          d="M22.7 13.6v11.5h-.5V13.6zm-1.5 0v11.5h-.5V13.6zm-1.5 0v11.5h-.5V13.6zm-1.6 0v11.5h-.4V13.6zm-1.5 0v11.5h-.4V13.6zm-1.5 0v11.5h-.5V13.6z"/>
    <path fill-opacity=".2" d="M25.7 19l-7.6 7.5-2.3-2.2 7.6-7.5z"/>
    <path fill="#ffa000" d="M26.5 19l-7.7 7.4-2.2-2.2 7.6-7.4z"/>
    <path fill="#9f6400"
          d="M19.5 21.3l1.2 1.2-.6.5-1.1-1.1zm2.6-2.5l1.2 1.1-.5.5-1.2-1.1zM21 21.3l-.8-.7.6-.5.6.7zm2.6-2.7l-.6-.7.5-.5.7.7zm-5.3 5.3l-.7-.7.5-.5.7.7z"/>
</svg>
