<svg xmlns="http://www.w3.org/2000/svg" width="100" height="100" viewBox="0 0 26.5 26.5">
  <path fill="#ffb74d" d="M12.7 5H5.3L0 3.7v10.6c1.3-.2 3.2-.4 4 .2l7.4 7.7s1.3 1.6 2.4.7c1.3-1.2-1-2 0-2.5 1-.7 1.4 2 2.9.5 1-1.1-1-1.7-.3-2.4 1-.8 1.6 2 3 .6 1.2-1.3-1-1.8-.2-2.5.7-.6 1.4 1.3 2.6.3.8-.6.3-1.5.3-1.5-3-3.3-4-10-9.4-10.4z"/>
  <path fill="#c77600" d="M26.5 3.3c-2 .8-4.4 1.4-5.1 1.3-1.2 0-1.7-1.1-2.8-1.3-1 0-1.4 0-1.9.2-.5.1-6 3-9 4.4-.2.1-.3.3-.3.5 0 .8 1.2 1.7 3.3 1.9 2.3 0 3.6-1 4.4-1.2l.5-.1.4.2 6.1 6.2c2-1.5 3.1-.5 4.4-1.3z"/>
  <g transform="rotate(-45 -332 150)">
    <rect width="3.3072917" height="2.6458333" y="294.4" fill="#c77600" ry="1.2579418"/>
    <path fill="#e9ab51" d="M1.7 294.7v2H2c.5 0 .9-.5.9-1 0-.6-.4-1-1-1z"/>
  </g>
  <g transform="rotate(-45 -325.6 147.4)">
    <rect width="3.3072917" height="2.6458333" y="294.4" fill="#c77600" ry="1.2579418"/>
    <path fill="#e9ab51" d="M1.7 294.7v2H2c.5 0 .9-.5.9-1 0-.6-.4-1-1-1z"/>
  </g>
  <g transform="rotate(-45 -335.2 151.4)">
    <rect width="3.3072917" height="2.6458333" y="294.4" fill="#c77600" ry="1.2579418"/>
    <path fill="#e9ab51" d="M1.7 294.7v2H2c.5 0 .9-.5.9-1 0-.6-.4-1-1-1z"/>
  </g>
  <g transform="rotate(-45 -328.8 148.7)">
    <rect width="3.3072917" height="2.6458333" y="294.4" fill="#c77600" ry="1.2579418"/>
    <path fill="#e9ab51" d="M1.7 294.7v2H2c.5 0 .9-.5.9-1 0-.6-.4-1-1-1z"/>
  </g>
</svg>
